<svg width="1280" height="691" viewBox="0 0 1280 691" fill="none" xmlns="http://www.w3.org/2000/svg">
<g clip-path="url(#clip0_2_70)">
<rect width="1280" height="691" fill="white"/>
<path d="M95.684 461.163C85.666 448.025 81.634 431.185 85.1 415.03C88.004 401.495 95.693 389.755 114.837 396.934C160.654 414.114 180.911 398.962 187.591 374.978C194.271 350.994 203.256 294.644 244.513 302.319C285.771 309.994 288.271 386.855 325.771 377.924C363.271 368.993 399.502 363.245 423.69 389.186C447.878 415.126 464.831 469.994 442.051 498.994C419.271 527.994 369.898 502.965 350.584 540.23C331.271 577.494 250.256 579.218 244.513 539.495C238.771 499.771 196.175 471.728 158.973 491.362C134.44 504.308 109.694 479.536 95.684 461.163Z" fill="#E1EDF7"/>
<path d="M404.897 297.795C404.897 298.883 404.454 299.874 403.732 300.592C403.019 301.314 402.027 301.758 400.94 301.758H316.233C314.058 301.758 312.275 299.975 312.275 297.796C312.275 296.708 312.718 295.716 313.44 294.999C314.153 294.277 315.145 293.833 316.232 293.833H320.236C321.817 290.159 325.469 287.59 329.719 287.59C332.58 287.59 335.167 288.755 337.041 290.634C339.536 286.402 344.139 283.559 349.408 283.559C350.857 283.559 352.251 283.778 353.567 284.176C356.323 278.993 361.771 275.465 368.051 275.465C375.592 275.465 381.936 280.557 383.851 287.485C385.24 286.79 386.808 286.393 388.471 286.393C393.174 286.393 397.141 289.533 398.389 293.833H400.939C403.115 293.832 404.897 295.615 404.897 297.795Z" fill="#E1EDF7"/>
<path d="M187.222 309.793C187.222 310.881 186.779 311.873 186.057 312.59C185.344 313.312 184.352 313.755 183.264 313.755H98.557C96.382 313.755 94.599 311.972 94.599 309.792C94.599 308.704 95.043 307.713 95.765 306.995C96.478 306.273 97.47 305.829 98.557 305.829H102.561C104.142 302.154 107.794 299.586 112.044 299.586C114.905 299.586 117.492 300.751 119.366 302.63C121.861 298.398 126.464 295.555 131.733 295.555C133.182 295.555 134.576 295.774 135.892 296.172C138.648 290.989 144.096 287.461 150.376 287.461C157.917 287.461 164.261 292.553 166.176 299.481C167.565 298.786 169.133 298.389 170.796 298.389C175.499 298.389 179.466 301.529 180.714 305.829H183.264C185.439 305.83 187.222 307.613 187.222 309.793Z" fill="#E1EDF7"/>
<path d="M265.517 252.233C265.517 253.321 265.074 254.312 264.352 255.03C263.639 255.752 262.647 256.195 261.559 256.195H176.852C174.677 256.195 172.894 254.413 172.894 252.233C172.894 251.145 173.338 250.154 174.06 249.436C174.773 248.714 175.765 248.27 176.852 248.27H180.856C182.437 244.596 186.089 242.027 190.339 242.027C193.2 242.027 195.787 243.192 197.661 245.071C200.156 240.839 204.759 237.996 210.028 237.996C211.477 237.996 212.871 238.215 214.187 238.613C216.943 233.43 222.391 229.902 228.671 229.902C236.212 229.902 242.556 234.994 244.471 241.922C245.86 241.227 247.428 240.83 249.091 240.83C253.794 240.83 257.761 243.97 259.009 248.27H261.559C263.735 248.27 265.517 250.053 265.517 252.233Z" fill="#E1EDF7"/>
<path d="M106.687 493.575C105.429 489.366 102.528 485.802 98.584 483.866C94.585 481.902 89.244 481.345 83.879 486.969C73.148 498.219 96.461 518.101 105.241 515.284C111.605 513.243 108.744 500.457 106.687 493.575Z" fill="#E1EDF7"/>
<path d="M407.69 550.163C412.083 550.22 416.35 548.515 419.376 545.33C422.444 542.1 424.571 537.17 420.806 530.369C413.275 516.768 387.338 533.079 387.403 542.299C387.451 548.983 400.507 550.07 407.69 550.163Z" fill="#E1EDF7"/>
<path d="M322.694 364.752C327.07 365.142 331.454 363.767 334.713 360.821C338.018 357.834 340.514 353.079 337.276 346.012C330.801 331.878 303.698 346.169 303.063 355.368C302.602 362.036 315.539 364.114 322.694 364.752Z" fill="#E1EDF7"/>
<path d="M123.004 520.085C123.689 522.734 125.412 525.02 127.822 526.316C130.265 527.631 133.577 528.102 137.047 524.726C143.988 517.973 129.939 505.056 124.409 506.605C120.4 507.729 121.884 515.754 123.004 520.085Z" fill="#E1EDF7"/>
<path d="M360.934 546.186C358.332 547.032 356.156 548.892 355.009 551.376C353.846 553.895 353.578 557.229 357.16 560.486C364.324 567.001 376.358 552.188 374.473 546.763C373.108 542.831 365.189 544.803 360.934 546.186Z" fill="#E1EDF7"/>
<path d="M216.415 620.695C216.415 623.393 194.677 625.58 167.861 625.58C141.045 625.58 119.307 623.393 119.307 620.695C119.307 617.997 141.046 615.81 167.861 615.81C194.676 615.81 216.415 617.997 216.415 620.695Z" fill="#E1EDF7"/>
<path d="M141.085 424.311C141.085 424.311 169.399 393.187 205.343 393.897C205.343 393.897 214.329 393.661 211.982 422.281C209.392 453.866 200.495 491.745 200.495 491.745L189.587 490.615C189.587 490.615 187.314 465.36 187.134 456.326C186.954 447.292 190.324 431.353 194.576 426.019C194.576 426.019 154.168 443.462 145.375 440.814C136.582 438.168 141.085 424.311 141.085 424.311Z" fill="#18285D"/>
<path d="M199.777 490.17L199.106 502.206L189.588 498.622L190.921 488.879L199.777 490.17Z" fill="#FF9978"/>
<path d="M196.364 500.432C196.364 500.432 199.336 498.588 200.835 499.309C202.334 500.029 210.505 514.188 214.275 516.578C218.045 518.968 216.028 522.973 214.321 522.3C209.406 520.361 182.412 509.489 182.412 509.489C182.412 509.489 185.271 499.684 187.45 497.2C189.629 494.716 192.904 499.859 196.364 500.432Z" fill="#5480FD"/>
<path d="M200.339 509.631C200.177 509.617 200.022 509.54 199.912 509.404C199.7 509.139 199.742 508.754 200.006 508.541C200.094 508.47 202.193 506.798 204.202 506.614C206.876 506.367 208.118 508.314 208.17 508.397C208.349 508.684 208.261 509.063 207.973 509.242C207.685 509.421 207.306 509.333 207.127 509.044C207.093 508.991 206.217 507.664 204.314 507.836C202.676 507.986 200.794 509.482 200.775 509.497C200.647 509.601 200.49 509.643 200.339 509.631Z" fill="white"/>
<path d="M199.27 507.351C199.109 507.337 198.953 507.26 198.844 507.124C198.631 506.86 198.673 506.473 198.937 506.261C199.026 506.19 201.124 504.518 203.134 504.334C205.81 504.087 207.05 506.034 207.102 506.117C207.281 506.405 207.193 506.784 206.905 506.963C206.618 507.142 206.238 507.054 206.06 506.765C206.026 506.713 205.15 505.384 203.247 505.558C201.603 505.708 199.727 507.204 199.709 507.219C199.579 507.32 199.422 507.364 199.27 507.351Z" fill="white"/>
<path d="M202.132 511.847C201.97 511.833 201.815 511.756 201.705 511.62C201.493 511.355 201.534 510.969 201.798 510.756C201.887 510.685 203.985 509.013 205.995 508.829C208.671 508.582 209.912 510.528 209.963 510.612C210.142 510.9 210.054 511.279 209.765 511.457C209.478 511.636 209.098 511.548 208.919 511.26C208.885 511.207 208.008 509.879 206.106 510.052C204.461 510.203 202.586 511.698 202.568 511.713C202.441 511.816 202.284 511.86 202.132 511.847Z" fill="white"/>
<path d="M188.204 487.865C187.317 490.507 187.339 491.633 187.792 493.731C187.792 493.731 193.69 495.543 201.333 495.626L201.881 489.586C201.881 489.586 196.882 488.787 188.204 487.865Z" fill="#586199"/>
<path d="M116.915 425.939C120.578 442.112 130.834 477.501 140.907 493.291C140.907 493.291 138.796 503.383 139.577 519.172C140.079 529.317 136.188 563.717 136.188 563.717L147.155 564.903C147.155 564.903 161.894 515.053 162.95 491.01C162.95 491.01 156.455 431.955 147.557 418.586C147.557 418.586 123.877 416.059 116.915 425.939Z" fill="#3B3E7D"/>
<path d="M139.25 566.687C139.225 566.687 139.2 566.686 139.175 566.682C138.851 566.641 138.622 566.345 138.662 566.022C140.533 551.167 141.606 536.478 141.85 522.365C142.145 510.543 144.397 494.424 144.667 492.528C132.049 467.072 119.458 426.484 119.332 426.076C119.236 425.764 119.41 425.433 119.722 425.337C120.034 425.241 120.365 425.415 120.461 425.727C120.587 426.135 133.206 466.808 145.807 492.167C145.861 492.275 145.88 492.396 145.863 492.515C145.838 492.688 143.342 509.951 143.031 522.39C142.786 536.542 141.711 551.273 139.834 566.17C139.798 566.468 139.543 566.687 139.25 566.687Z" fill="#18285D"/>
<path d="M146.675 564.709L146.437 576.18C143.705 579.656 140.279 578.83 136.244 574.238L136.807 563.827L146.675 564.709Z" fill="#FF9978"/>
<path d="M135.269 562.215C134.382 564.857 134.404 565.983 134.857 568.081C134.857 568.081 140.755 569.893 148.398 569.976L148.946 563.935C148.946 563.935 143.947 563.137 135.269 562.215Z" fill="#586199"/>
<path d="M140.436 574.053C140.436 574.053 142.351 570.959 146.881 572.457C151.411 573.955 150.719 578.971 150.719 578.971C150.719 578.971 155.265 588.5 156.975 590.721C160.427 595.204 161.314 595.532 160.772 598.545C159.986 602.911 151.286 604.122 147.519 598.956C143.752 593.79 133.45 582.251 133.852 580.132C135.11 573.503 136.284 570.446 136.284 570.446C136.557 571.883 138.111 573.999 140.436 574.053Z" fill="#5480FD"/>
<path d="M146.19 586.436C146.007 586.418 145.832 586.328 145.711 586.172C145.475 585.869 145.53 585.433 145.832 585.197C145.933 585.118 148.337 583.263 150.614 583.09C153.644 582.857 155.016 585.082 155.073 585.176C155.271 585.504 155.164 585.932 154.835 586.13C154.506 586.328 154.079 586.221 153.882 585.891C153.845 585.831 152.877 584.313 150.72 584.476C148.864 584.617 146.708 586.277 146.687 586.294C146.539 586.408 146.361 586.453 146.19 586.436Z" fill="white"/>
<path d="M145.02 583.838C144.838 583.82 144.663 583.73 144.541 583.574C144.305 583.271 144.359 582.835 144.662 582.599C144.763 582.52 147.167 580.665 149.444 580.491C152.477 580.258 153.846 582.482 153.903 582.577C154.101 582.906 153.994 583.333 153.665 583.53C153.337 583.728 152.909 583.622 152.712 583.292C152.674 583.232 151.706 581.714 149.55 581.877C147.686 582.019 145.539 583.678 145.517 583.695C145.371 583.809 145.192 583.855 145.02 583.838Z" fill="white"/>
<path d="M148.181 588.975C147.998 588.957 147.824 588.867 147.702 588.711C147.466 588.408 147.52 587.972 147.823 587.735C147.924 587.656 150.328 585.801 152.605 585.628C155.638 585.394 157.007 587.619 157.064 587.714C157.261 588.043 157.155 588.47 156.826 588.667C156.498 588.865 156.07 588.758 155.873 588.429C155.835 588.369 154.866 586.85 152.711 587.013C150.847 587.155 148.699 588.814 148.678 588.831C148.53 588.946 148.352 588.992 148.181 588.975Z" fill="white"/>
<path d="M146.19 586.436C146.007 586.418 145.832 586.328 145.711 586.172C145.475 585.869 145.53 585.433 145.832 585.197C145.933 585.118 148.337 583.263 150.614 583.09C153.644 582.857 155.016 585.082 155.073 585.176C155.271 585.504 155.164 585.932 154.835 586.13C154.506 586.328 154.079 586.221 153.882 585.891C153.845 585.831 152.877 584.313 150.72 584.476C148.864 584.617 146.708 586.277 146.687 586.294C146.539 586.408 146.361 586.453 146.19 586.436Z" fill="white"/>
<path d="M145.02 583.838C144.838 583.82 144.663 583.73 144.541 583.574C144.305 583.271 144.359 582.835 144.662 582.599C144.763 582.52 147.167 580.665 149.444 580.491C152.477 580.258 153.846 582.482 153.903 582.577C154.101 582.906 153.994 583.333 153.665 583.53C153.337 583.728 152.909 583.622 152.712 583.292C152.674 583.232 151.706 581.714 149.55 581.877C147.686 582.019 145.539 583.678 145.517 583.695C145.371 583.809 145.192 583.855 145.02 583.838Z" fill="white"/>
<path d="M148.181 588.975C147.998 588.957 147.824 588.867 147.702 588.711C147.466 588.408 147.52 587.972 147.823 587.735C147.924 587.656 150.328 585.801 152.605 585.628C155.638 585.394 157.007 587.619 157.064 587.714C157.261 588.043 157.155 588.47 156.826 588.667C156.498 588.865 156.07 588.758 155.873 588.429C155.835 588.369 154.866 586.85 152.711 587.013C150.847 587.155 148.699 588.814 148.678 588.831C148.53 588.946 148.352 588.992 148.181 588.975Z" fill="white"/>
<path d="M108.662 308.8C108.662 308.8 86.633 299.968 81.891 315.86C79.55 323.707 95.326 335.304 102.062 334.999C108.798 334.694 128.062 327.071 129.227 323.115C130.394 319.157 125.164 304.711 108.662 308.8Z" fill="#5480FD"/>
<path d="M104.039 324.783C104.039 324.783 91.036 319.455 95.242 314.301C99.448 309.147 114.408 309.57 119.832 313.503C125.256 317.436 125.542 320.112 125.542 320.112C125.542 320.112 112.302 326.454 104.039 324.783Z" fill="#2E60E2"/>
<path d="M112.488 427.792C112.961 420.623 113.749 412.326 113.161 403.954C110.628 385.244 104.959 367.096 96.391 350.271L88.614 334.999L102.252 325.967L102.984 325.482L106.045 323.455L108.475 321.847L124.868 319.838L127.535 319.509L128.476 319.394L140.203 317.955C149.524 358.568 156.029 370.552 170.355 397.918C176.591 408.017 151.149 428.826 112.488 427.792Z" fill="#5480FD"/>
<path d="M118.146 431.087C113.367 430.638 112.487 427.79 112.487 427.79L117.325 427.71C117.576 428.772 117.85 429.903 118.146 431.087Z" fill="#2E60E2"/>
<path d="M115.828 331.52C104.485 334.479 99.21 325.189 99.158 325.094C99.042 324.885 99.118 324.622 99.328 324.507C99.536 324.39 99.8 324.467 99.915 324.676C100.116 325.038 104.932 333.469 115.606 330.684C115.665 330.668 115.722 330.653 115.782 330.637C116.009 330.589 116.25 330.711 116.312 330.942C116.375 331.173 116.238 331.41 116.008 331.473C115.948 331.489 115.886 331.505 115.828 331.52Z" fill="#2E60E2"/>
<path d="M126.06 327.137C125.832 327.196 125.599 327.063 125.534 326.836C125.47 326.607 125.603 326.368 125.833 326.303C125.982 326.26 129.241 325.255 128.913 320.576C128.896 320.338 129.074 320.131 129.314 320.114C129.552 320.098 129.759 320.277 129.775 320.515C130.154 325.924 126.109 327.124 126.068 327.135C126.065 327.136 126.063 327.136 126.06 327.137Z" fill="#2E60E2"/>
<path d="M122.724 388.487C122.724 388.487 124.604 403.024 130.173 408.907C130.173 408.907 149.155 405.277 161.295 396.362C161.295 396.362 155.313 387.451 152.725 377.889L122.724 388.487Z" fill="#2E60E2"/>
<path d="M128.74 370.981C128.728 370.984 128.716 370.987 128.703 370.989C128.468 371.029 128.244 370.871 128.204 370.636C126.384 359.972 115.517 334.707 115.408 334.453C115.313 334.234 115.415 333.979 115.634 333.885C115.853 333.79 116.108 333.891 116.202 334.111C116.312 334.366 127.219 359.725 129.057 370.491C129.095 370.713 128.955 370.925 128.74 370.981Z" fill="white"/>
<path d="M141.983 365.292C141.971 365.295 141.959 365.298 141.946 365.3C141.711 365.34 141.487 365.182 141.447 364.947C139.626 354.282 128.574 328.848 128.462 328.592C128.367 328.373 128.467 328.118 128.686 328.023C128.905 327.927 129.16 328.028 129.255 328.247C129.367 328.504 140.461 354.035 142.3 364.802C142.338 365.024 142.198 365.236 141.983 365.292Z" fill="white"/>
<path d="M123.711 287.553C125.96 297.153 120.002 306.76 110.402 309.009C100.802 311.258 91.195 305.3 88.946 295.7C86.696 286.1 92.655 276.494 102.255 274.244C111.855 271.994 121.461 277.953 123.711 287.553Z" fill="#00246C"/>
<path d="M122.697 284.503C122.697 284.503 127.301 281.991 125.533 277.365C124.027 273.428 119.869 277.184 119.544 273.907C119.219 270.63 119.475 267.523 115.178 267.691C111.419 267.839 111.936 270.317 106.376 267.849C99.808 264.933 97.814 275.717 92.904 277.178C85.662 279.332 85.708 283.703 85.764 287.194C85.82 290.686 89.193 292.353 89.193 292.353L122.697 284.503Z" fill="#00246C"/>
<path d="M121.93 293.102C121.93 293.102 123.823 288.785 126.582 291.342C129.341 293.898 128.547 303.543 123.022 302.529L121.93 293.102Z" fill="#FF7A5D"/>
<path d="M123.467 299.501C123.652 299.458 123.794 299.295 123.802 299.096C123.931 296.146 126.535 294.351 126.561 294.334C126.76 294.199 126.813 293.929 126.679 293.73C126.545 293.531 126.275 293.478 126.076 293.611C125.954 293.693 123.081 295.66 122.933 299.058C122.923 299.298 123.109 299.501 123.349 299.511C123.39 299.514 123.429 299.51 123.467 299.501Z" fill="#EF4B47"/>
<path d="M126.035 297.428C126.114 297.409 126.188 297.369 126.248 297.307C126.415 297.134 126.411 296.858 126.238 296.692C126.209 296.664 125.52 296.009 124.347 295.783C124.112 295.737 123.883 295.892 123.838 296.128C123.793 296.364 123.947 296.592 124.183 296.638C125.09 296.813 125.628 297.314 125.633 297.319C125.744 297.424 125.896 297.46 126.035 297.428Z" fill="#EF4B47"/>
<path d="M105.893 314.565L107.983 323.482C107.983 323.482 112.57 326.552 116.239 326.019C119.905 325.49 121.09 320.71 121.09 320.71L119.081 312.136L105.893 314.565Z" fill="#FF9978"/>
<path d="M105.893 314.565L106.82 318.521C109.861 320.633 114.303 320.298 120.425 317.876L119.08 312.136L105.893 314.565Z" fill="#FF7A5D"/>
<path d="M91.126 293.868C92.104 297.294 93.449 301.55 94.922 304.861C95.29 305.687 95.667 306.456 96.045 307.136C99.41 313.174 106.267 323.776 118.835 315.662C124.153 312.231 125.328 305.136 124.986 298.281C124.753 293.626 123.819 289.086 123.004 285.876C122.169 282.6 119.669 280.013 116.425 279.061C107.639 276.482 99.838 280.039 94.936 283.373C91.532 285.684 89.999 289.918 91.126 293.868Z" fill="#FF9978"/>
<path d="M115.598 295.814C115.821 296.766 116.492 297.422 117.098 297.281C117.703 297.139 118.013 296.253 117.79 295.301C117.567 294.349 116.895 293.692 116.29 293.834C115.684 293.975 115.375 294.862 115.598 295.814Z" fill="#00246C"/>
<path d="M102.767 298.82C102.99 299.772 103.661 300.428 104.267 300.287C104.872 300.145 105.182 299.259 104.959 298.307C104.736 297.355 104.065 296.699 103.46 296.84C102.854 296.982 102.544 297.868 102.767 298.82Z" fill="#00246C"/>
<path d="M119.242 290.135C119.242 290.135 114.476 288.503 110.946 290.227L111.325 291.886C111.325 291.886 115.187 290.833 119.074 292.081C119.276 291.298 119.583 290.914 119.242 290.135Z" fill="#00246C"/>
<path d="M98.2729 295.113C98.2729 295.113 101.762 291.48 105.69 291.395L106.113 293.043C106.113 293.043 102.198 293.877 99.3139 296.766C98.7759 296.163 98.3269 295.961 98.2729 295.113Z" fill="#00246C"/>
<path d="M111.117 304.017C110.402 304.184 109.628 304.073 109.508 304.053C109.271 304.015 109.11 303.792 109.147 303.555C109.184 303.318 109.407 303.156 109.644 303.193C110.063 303.258 111.038 303.287 111.381 302.956C111.447 302.891 111.531 302.776 111.497 302.512C111.304 300.997 109.736 296.134 109.721 296.085C109.647 295.857 109.773 295.611 110.001 295.538C110.23 295.463 110.475 295.589 110.549 295.818C110.615 296.021 112.156 300.808 112.36 302.402C112.437 303.002 112.199 303.374 111.986 303.58C111.753 303.808 111.441 303.941 111.117 304.017Z" fill="#FF7A5D"/>
<path d="M117.053 305.361C117.115 307.184 116.715 310.658 112.839 311.566C108.954 312.477 107.178 309.803 106.33 307.873L117.053 305.361Z" fill="white"/>
<path d="M113.409 313.766C112.313 314.023 111.253 313.685 111.208 313.671C110.98 313.597 110.855 313.351 110.929 313.123C111.003 312.894 111.248 312.769 111.477 312.844C111.485 312.847 112.356 313.12 113.21 312.919C113.994 312.735 114.639 312.11 114.645 312.103C114.815 311.934 115.09 311.934 115.26 312.104C115.43 312.274 115.429 312.55 115.259 312.719C115.227 312.752 114.444 313.523 113.409 313.766Z" fill="#FF7A5D"/>
<path d="M123.028 295.826C122.939 294.004 122.727 291.675 122.226 290.574C121.334 288.625 119.359 287.819 119.461 285.716C119.561 283.604 116.981 281.973 115.361 281.981C113.745 281.984 110.337 283.589 106.414 282.74C102.669 281.927 97.079 284.447 96.631 286.833C96.09 289.722 97.7201 289.602 95.2311 293.172C94.2401 294.595 96.417 297.177 97.076 299.033C97.377 299.888 97.4911 300.313 97.6781 301.263L97.7771 301.744L94.004 302.628C92.895 299.769 91.894 296.565 91.125 293.868C89.998 289.918 91.535 285.687 94.937 283.373C99.841 280.039 107.637 276.48 116.428 279.061C119.67 280.015 122.172 282.598 123.004 285.876C123.651 288.421 124.373 291.805 124.759 295.422L123.028 295.826Z" fill="#00246C"/>
<path d="M96.057 303.865C95.838 302.876 95.536 301.905 95.136 300.973C94.589 299.699 93.921 298.584 92.431 298.349C91.232 298.16 90.062 298.425 89.519 299.853C88.183 303.369 92.677 312.281 97.177 308.918L96.057 303.865Z" fill="#FF9978"/>
<path d="M95.564 306.394C95.374 306.4 95.195 306.28 95.135 306.09C94.243 303.275 91.261 302.221 91.231 302.21C91.004 302.132 90.883 301.884 90.96 301.657C91.037 301.43 91.285 301.309 91.511 301.386C91.65 301.433 94.936 302.585 95.963 305.827C96.036 306.056 95.909 306.3 95.68 306.373C95.643 306.386 95.603 306.392 95.564 306.394Z" fill="#FF7A5D"/>
<path d="M92.545 305.061C92.464 305.064 92.382 305.044 92.307 305C92.101 304.876 92.034 304.609 92.157 304.403C92.178 304.369 92.672 303.557 93.746 303.033C93.961 302.928 94.222 303.017 94.328 303.233C94.434 303.449 94.344 303.709 94.128 303.815C93.298 304.22 92.908 304.844 92.905 304.85C92.826 304.981 92.688 305.056 92.545 305.061Z" fill="#FF7A5D"/>
<path d="M81.331 384.677L80.938 385.363C80.938 385.363 80.95 385.502 80.955 385.789C80.979 387.194 80.867 392.122 78.697 401.43C76.081 412.641 74.213 436.386 74.213 436.386C71.538 437.687 68.798 437.223 66.367 436.386C63.378 417.329 66.367 387.606 66.367 387.606C69.356 371.165 88.615 335 88.615 335C95.901 340.309 98.746 354.266 98.746 354.266L81.331 384.677Z" fill="#5480FD"/>
<path d="M80.9391 385.363C80.9391 385.363 80.9511 385.502 80.9561 385.789C78.0241 384.796 73.6321 384.401 73.5761 384.396C73.2521 384.368 73.0111 384.082 73.0391 383.758C73.0671 383.432 73.3541 383.193 73.6801 383.219C73.9141 383.24 78.2371 383.626 81.3321 384.678L80.9391 385.363Z" fill="#2E60E2"/>
<path d="M74.213 436.384C74.213 436.384 76.937 438.394 78.711 441.232C80.485 444.07 79.665 446.231 80.425 448.71C81.241 451.37 80.472 452.228 79.124 451.223C77.776 450.218 77.423 447.391 76.897 446.71C76.184 445.787 75.833 446.631 75.518 447.971C75.123 449.649 74.393 452.306 74.927 454.75C75.471 457.238 74.099 460.307 73.508 460.15C72.25 459.814 72.74 458.081 72.799 456.603C72.858 455.125 71.912 453.233 72.326 451.164C72.326 451.164 71.38 454.061 71.853 455.834C72.326 457.608 71.085 461.036 70.138 461.036C69.192 461.036 69.488 458.671 69.429 457.371C69.37 456.07 69.37 452.641 69.725 451.341C69.725 451.341 68.838 453.765 68.779 455.302C68.72 456.839 68.838 460.15 68.011 460.564C67.183 460.978 67.065 460.209 67.124 457.726C67.183 455.243 67.065 453.647 67.42 452.583C67.42 452.583 66.651 453.824 66.356 455.716C66.06 457.608 65.883 458.435 65.351 458.731C64.819 459.027 64.484 459.086 64.72 457.47C64.956 455.854 64.923 455.105 65.038 453.805C65.153 452.505 65.863 450.691 65.823 449.43C65.784 448.169 65.862 446.592 66.138 445.095C66.414 443.597 66.366 436.385 66.366 436.385C68.943 437.324 71.55 437.546 74.213 436.384Z" fill="#FF9978"/>
<path d="M187.989 262.353C187.989 262.353 187.44 305.597 183.747 315.387C183.747 315.387 171.422 325.258 143.641 335C143.641 335 137.918 325.472 139.626 318.12C139.626 318.12 161.15 311.541 172.86 307.006C172.995 306.954 173.127 306.902 173.26 306.85C173.26 306.85 173.284 306.505 173.331 305.888C173.615 302.005 174.759 287.365 176.221 280.531C177.912 272.611 178.408 262.762 178.408 262.762L187.989 262.353Z" fill="#5480FD"/>
<path d="M178.407 262.762C178.407 262.762 175.046 260.454 174.826 257.953C174.605 255.452 174.329 255.231 173.52 253.171C172.711 251.111 172.567 249.678 173.097 249.419C174.826 248.573 175.745 253.061 176.702 254.09C177.658 255.12 177.769 254.568 177.989 253.906C178.21 253.244 175.451 242.283 176.554 241.253C177.657 240.223 179.061 248.794 179.837 249.777C179.975 249.952 180.527 249.602 180.38 247.248C180.233 244.894 179.571 239.781 180.895 239.561C182.219 239.34 182.293 248.462 183.156 249.391C183.727 250.005 183.249 241.326 184.499 241.621C185.75 241.915 185.235 250.081 185.97 250.669C186.706 251.257 186.995 245.176 187.989 245.446C189.611 245.887 187.654 252.802 187.989 255.009C188.324 257.216 188.682 260.719 187.988 262.352C184.843 263.532 181.647 263.634 178.407 262.762Z" fill="#FF9978"/>
<path d="M177.83 311.419C177.745 311.464 177.65 311.485 177.558 311.485C177.345 311.485 177.139 311.369 177.033 311.166C176.267 309.695 174.427 308.144 172.859 307.006C172.994 306.954 173.126 306.902 173.259 306.85C173.259 306.85 173.283 306.505 173.33 305.888C175.042 307.108 177.175 308.875 178.083 310.622C178.232 310.911 178.121 311.268 177.83 311.419Z" fill="#2E60E2"/>
<path d="M132.216 377.835C123.739 377.835 116.388 373.389 116.017 373.161C115.739 372.99 115.652 372.626 115.823 372.348C115.994 372.07 116.358 371.982 116.636 372.153C116.742 372.218 127.324 378.61 137.34 376.026C137.656 375.945 137.979 376.135 138.06 376.451C138.142 376.767 137.951 377.09 137.635 377.171C135.816 377.64 133.991 377.835 132.216 377.835Z" fill="#2E60E2"/>
<path d="M127.135 381.38C124.072 381.38 121.574 380.837 121.418 380.802C121.099 380.731 120.899 380.416 120.969 380.097C121.04 379.778 121.355 379.576 121.674 379.648C121.729 379.66 127.269 380.862 131.799 379.654C132.115 379.569 132.438 379.757 132.522 380.073C132.606 380.388 132.418 380.712 132.103 380.797C130.461 381.234 128.722 381.38 127.135 381.38Z" fill="#2E60E2"/>
<path d="M314.471 621.277C314.471 623.975 296.583 626.162 274.517 626.162C252.451 626.162 234.563 623.975 234.563 621.277C234.563 618.579 252.451 616.392 274.517 616.392C296.583 616.392 314.471 618.579 314.471 621.277Z" fill="#E1EDF7"/>
<path d="M263.989 442.464C261.728 447.26 259.304 452.122 256.758 457.029C256.758 457.029 261.289 479.12 262.528 494.201C263.093 501.08 270.273 538.921 270.273 538.921L268.232 540.103L266.903 540.874L260.465 544.605C260.465 544.605 237.424 479.982 236.556 459.311C235.974 445.487 244.958 420.784 250.969 405.939C253.949 398.587 256.2 393.652 256.2 393.652C256.907 392.834 257.72 392.091 258.614 391.415C258.742 391.318 258.869 391.224 259.002 391.129C259.986 390.422 261.057 389.793 262.175 389.235C270.102 385.267 280.502 384.768 280.502 384.768C280.54 391.013 279.656 397.62 278.036 404.518C275.238 416.423 270.244 429.198 263.989 442.464Z" fill="#FFC149"/>
<path d="M267.085 532.341C266.056 525.788 264.538 516.828 262.701 506.435C259.527 488.501 255.29 465.825 253.327 457.182C252.603 454.001 259.388 440.91 264.122 432.889C264.323 432.551 264.209 432.116 263.874 431.917C263.536 431.718 263.101 431.829 262.902 432.168C261.665 434.261 250.863 452.749 251.941 457.499C255.259 472.09 265.259 527.555 266.903 540.873L268.232 540.102C268.007 538.35 267.638 535.869 267.085 532.341Z" fill="#FF9D1E"/>
<path d="M278.036 404.517C275.238 416.424 270.244 429.198 263.989 442.464C262.064 431.711 259.847 418.547 258.939 407.681C258.842 406.782 258.72 402.675 256.653 402.656C255.527 402.647 253.314 403.758 250.968 405.938C253.948 398.586 256.199 393.651 256.199 393.651C256.906 392.833 257.719 392.09 258.613 391.414C258.741 391.317 258.868 391.223 259.001 391.128C259.985 390.421 261.056 389.792 262.174 389.234L273.012 387.732L278.036 404.517Z" fill="#FF9D1E"/>
<path d="M260.465 542.645L263.624 553.675C267.153 556.339 270.255 554.665 272.983 549.195L269.78 539.273L260.465 542.645Z" fill="#FF9978"/>
<path d="M270.857 537.321C272.389 539.649 272.656 540.743 272.754 542.888C272.754 542.888 267.514 546.146 260.146 548.177L258.074 542.477C258.074 542.477 262.702 540.429 270.857 537.321Z" fill="#FF9D1E"/>
<path d="M268.884 550.086C268.884 550.086 266.243 547.583 262.245 550.189C258.248 552.794 260.198 557.467 260.198 557.467C260.198 557.467 258.236 567.841 257.15 570.425C254.957 575.641 254.183 576.184 255.476 578.959C257.351 582.98 266.071 581.929 268.394 575.973C270.717 570.017 277.731 556.23 276.801 554.283C273.892 548.195 271.977 545.539 271.977 545.539C272.08 546.998 271.118 549.44 268.884 550.086Z" fill="#586199"/>
<path d="M266.482 563.528C266.654 563.464 266.8 563.332 266.878 563.15C267.029 562.797 266.865 562.389 266.512 562.238C266.394 562.187 263.596 561.008 261.35 561.422C258.361 561.97 257.602 564.471 257.572 564.578C257.465 564.946 257.677 565.332 258.046 565.439C258.414 565.546 258.8 565.334 258.907 564.965C258.928 564.897 259.476 563.183 261.603 562.789C263.434 562.451 265.942 563.506 265.967 563.517C266.137 563.59 266.321 563.588 266.482 563.528Z" fill="white"/>
<path d="M266.95 560.717C267.121 560.653 267.267 560.521 267.345 560.339C267.495 559.986 267.332 559.578 266.979 559.427C266.861 559.377 264.063 558.196 261.818 558.61C258.826 559.159 258.07 561.659 258.039 561.766C257.932 562.134 258.144 562.52 258.513 562.627C258.881 562.735 259.267 562.523 259.374 562.153C259.395 562.085 259.944 560.37 262.07 559.977C263.908 559.638 266.408 560.694 266.433 560.705C266.604 560.779 266.788 560.777 266.95 560.717Z" fill="white"/>
<path d="M265.206 566.491C265.378 566.427 265.524 566.295 265.602 566.113C265.753 565.76 265.589 565.352 265.236 565.201C265.118 565.151 262.32 563.97 260.074 564.385C257.082 564.933 256.326 567.434 256.295 567.541C256.188 567.909 256.4 568.295 256.769 568.402C257.137 568.509 257.523 568.297 257.63 567.928C257.651 567.86 258.2 566.145 260.326 565.752C262.164 565.413 264.664 566.469 264.689 566.48C264.86 566.552 265.044 566.552 265.206 566.491Z" fill="white"/>
<path d="M266.482 563.528C266.654 563.464 266.8 563.332 266.878 563.15C267.029 562.797 266.865 562.389 266.512 562.238C266.394 562.187 263.596 561.008 261.35 561.422C258.361 561.97 257.602 564.471 257.572 564.578C257.465 564.946 257.677 565.332 258.046 565.439C258.414 565.546 258.8 565.334 258.907 564.965C258.928 564.897 259.476 563.183 261.603 562.789C263.434 562.451 265.942 563.506 265.967 563.517C266.137 563.59 266.321 563.588 266.482 563.528Z" fill="white"/>
<path d="M266.95 560.717C267.121 560.653 267.267 560.521 267.345 560.339C267.495 559.986 267.332 559.578 266.979 559.427C266.861 559.377 264.063 558.196 261.818 558.61C258.826 559.159 258.07 561.659 258.039 561.766C257.932 562.134 258.144 562.52 258.513 562.627C258.881 562.735 259.267 562.523 259.374 562.153C259.395 562.085 259.944 560.37 262.07 559.977C263.908 559.638 266.408 560.694 266.433 560.705C266.604 560.779 266.788 560.777 266.95 560.717Z" fill="white"/>
<path d="M265.206 566.491C265.378 566.427 265.524 566.295 265.602 566.113C265.753 565.76 265.589 565.352 265.236 565.201C265.118 565.151 262.32 563.97 260.074 564.385C257.082 564.933 256.326 567.434 256.295 567.541C256.188 567.909 256.4 568.295 256.769 568.402C257.137 568.509 257.523 568.297 257.63 567.928C257.651 567.86 258.2 566.145 260.326 565.752C262.164 565.413 264.664 566.469 264.689 566.48C264.86 566.552 265.044 566.552 265.206 566.491Z" fill="white"/>
<path d="M246.378 326.545C231.847 320.371 210.304 302.923 210.777 292.701C211.25 282.48 219.884 244.654 219.884 244.654L226.148 245.38C226.148 245.38 224.573 259.521 225.046 270.281C225.377 277.81 223.521 287.695 222.982 290.379C222.892 290.828 222.838 291.077 222.838 291.077C222.916 291.247 222.999 291.415 223.082 291.583C228.937 303.459 243.868 308.817 243.868 308.817C252.515 324.456 246.378 326.545 246.378 326.545Z" fill="#FF9978"/>
<path d="M223.081 291.582C221.615 292.008 219.931 292.369 218.472 292.369C218.091 292.369 217.725 292.345 217.382 292.289C217.06 292.239 216.841 291.934 216.893 291.613C216.945 291.291 217.25 291.072 217.572 291.124C219.088 291.368 221.211 290.909 222.982 290.379C222.892 290.828 222.838 291.077 222.838 291.077C222.915 291.246 222.998 291.414 223.081 291.582Z" fill="#FF7A5D"/>
<path d="M225.824 248.681C225.824 248.681 230.762 246.543 231.278 244.086C231.794 241.629 232.083 241.443 233.104 239.493C234.125 237.544 234.187 236.673 233.715 236.353C232.177 235.311 231.004 239.122 229.97 240.032C228.936 240.942 228.898 240.382 228.77 239.698C228.641 239.015 232.604 228.46 231.683 227.309C230.761 226.157 228.379 234.499 227.521 235.384C227.369 235.541 226.887 235.13 227.316 232.811C227.744 230.492 228.999 225.495 227.769 225.121C226.539 224.747 225.351 233.791 224.417 234.612C223.799 235.155 225.317 226.597 224.093 226.743C222.869 226.888 222.358 235.053 221.587 235.551C220.816 236.049 221.287 229.979 220.31 230.131C218.715 230.379 219.727 237.471 219.138 239.622C218.549 241.773 218.652 246.39 219.111 248.091C221.954 249.631 222.641 249.167 225.824 248.681Z" fill="#FF9978"/>
<path d="M226.955 253.778C226.572 254.258 225.938 254.561 225.356 254.748C225.384 254.306 225.413 253.873 225.444 253.45C225.695 253.337 225.905 253.197 226.03 253.041C226.117 252.932 226.148 252.831 226.132 252.703C226.125 252.649 226 252.438 225.538 252.147C225.503 252.126 225.465 252.102 225.425 252.078C223.722 251.08 220.036 250.311 218.593 250.893C218.555 250.907 218.517 250.926 218.479 250.945C218.264 251.044 218.049 251.188 218.016 251.373C217.988 251.548 218.089 251.784 218.243 252.011C218.141 252.475 218.037 252.955 217.929 253.449C217.655 253.198 216.68 252.227 216.851 251.184C216.919 250.763 217.201 250.184 218.152 249.798C218.336 249.725 218.545 249.666 218.772 249.623C220.631 249.268 223.783 249.916 225.642 250.85C225.782 250.919 225.914 250.992 226.039 251.065C226.829 251.533 227.245 252.023 227.309 252.562C227.359 253.002 227.236 253.423 226.955 253.778Z" fill="#5480FD"/>
<path d="M307.134 394.041C305.999 391.712 305.015 390.165 305.015 390.165C305.015 390.165 304.809 390.011 304.424 389.739C305.673 389.831 307.477 390.148 308.385 391.151C308.385 391.151 308.955 392.986 307.134 394.041Z" fill="#D32250"/>
<path d="M260.24 298.906C260.24 298.906 250.357 305.695 244.112 308.848C243.366 309.225 247.602 322.619 246.994 324.395C246.386 326.171 243.644 335.163 248.847 340.148C254.05 345.134 256.083 352.86 255.931 359.315C255.779 365.77 253.42 398.486 253.42 398.486C253.42 398.486 281.144 382.146 308.386 391.15C308.386 391.15 292.486 350.14 291.946 340.118C291.406 330.096 296.999 328.796 290.979 318.909C286.777 312.008 292.377 305.389 290.665 302.836C288.098 299.01 272.519 296.235 272.519 296.235L260.24 298.906Z" fill="#FF535A"/>
<path d="M259.731 313.256C258.91 313.256 258.163 313.137 257.54 312.873C256.345 312.368 255.67 311.393 255.587 310.053C255.288 305.234 258.477 299.084 258.613 298.825C258.764 298.536 259.122 298.424 259.411 298.576C259.7 298.727 259.812 299.085 259.661 299.374C259.629 299.435 256.49 305.493 256.768 309.98C256.823 310.866 257.226 311.456 258.002 311.784C260.552 312.863 265.867 310.936 268.567 308.622C272.135 305.564 274.202 299.297 272.516 296.647C272.341 296.372 272.422 296.006 272.698 295.831C272.973 295.656 273.339 295.737 273.514 296.013C275.538 299.195 273.43 306.011 269.336 309.52C266.953 311.561 262.825 313.255 259.731 313.256Z" fill="white"/>
<path d="M270.842 319.27C263.13 319.27 256.268 315.924 255.915 315.748C255.622 315.603 255.503 315.248 255.648 314.956C255.793 314.663 256.147 314.544 256.44 314.689C256.543 314.74 266.86 319.766 276.066 317.483C276.383 317.404 276.704 317.597 276.782 317.914C276.861 318.231 276.667 318.552 276.35 318.63C274.516 319.085 272.655 319.27 270.842 319.27Z" fill="#D32250"/>
<path d="M271.181 315.903C267.928 315.903 265.236 315.048 265.067 314.993C264.757 314.892 264.587 314.559 264.687 314.249C264.788 313.938 265.121 313.769 265.431 313.869C265.49 313.888 271.366 315.748 275.986 313.883C276.289 313.761 276.633 313.907 276.756 314.21C276.878 314.513 276.732 314.857 276.429 314.979C274.712 315.672 272.87 315.903 271.181 315.903Z" fill="#D32250"/>
<path d="M260.702 345.645C260.393 345.645 260.133 345.405 260.113 345.092C260.092 344.766 260.338 344.485 260.664 344.463C260.806 344.454 274.971 343.481 285.084 338.961C285.382 338.828 285.732 338.961 285.865 339.259C285.998 339.557 285.865 339.907 285.567 340.04C275.258 344.648 260.886 345.633 260.742 345.642C260.728 345.644 260.715 345.645 260.702 345.645Z" fill="#D32250"/>
<path d="M291.37 371.913C280.968 371.913 269.686 363.03 269.173 362.622C268.918 362.419 268.876 362.047 269.079 361.791C269.282 361.536 269.654 361.493 269.91 361.697C270.042 361.802 283.199 372.158 293.691 370.561C294.012 370.513 294.315 370.734 294.364 371.057C294.413 371.38 294.191 371.681 293.868 371.73C293.046 371.855 292.211 371.913 291.37 371.913Z" fill="#D32250"/>
<path d="M339.183 367.601L332.089 369.136C332.089 369.136 326.413 353.73 322.63 347.364C319.215 341.618 315.69 331.816 315.032 329.955C314.963 329.754 314.926 329.645 314.926 329.645L314.025 329.241L290.98 318.912C290.98 318.912 284.95 312.215 290.666 302.841C290.666 302.841 313.644 312.146 321.684 323.261C329.724 334.374 339.183 367.601 339.183 367.601Z" fill="#FF9978"/>
<path d="M318.782 325.809C318.061 327.275 316.502 328.767 315.031 329.955C314.962 329.754 314.925 329.645 314.925 329.645L314.024 329.241C315.471 328.106 317.049 326.656 317.72 325.289C317.864 324.996 318.219 324.873 318.512 325.019C318.806 325.164 318.926 325.516 318.782 325.809Z" fill="#FF7A5D"/>
<path d="M332.201 368.854C332.201 368.854 330.849 371.611 330.609 374.636C330.368 377.661 331.931 379.058 332.356 381.371C332.812 383.853 333.789 384.221 334.453 382.849C335.117 381.477 334.22 379.054 334.358 378.286C334.546 377.245 335.181 377.778 335.995 378.724C337.014 379.909 338.713 381.742 339.305 383.932C339.908 386.162 342.295 388.058 342.704 387.684C343.576 386.888 342.457 385.698 341.792 384.533C341.126 383.368 341.097 381.45 339.898 379.958C339.898 379.958 341.87 381.894 342.231 383.519C342.592 385.144 345.025 387.384 345.786 386.989C346.547 386.594 345.321 384.814 344.824 383.743C344.328 382.672 342.894 379.912 342.065 379.014C342.065 379.014 343.792 380.594 344.482 381.806C345.172 383.018 346.461 385.732 347.301 385.719C348.14 385.706 347.914 385.038 346.828 383.065C345.742 381.092 345.17 379.758 344.44 379.05C344.44 379.05 345.578 379.728 346.607 381.127C347.636 382.526 348.125 383.118 348.676 383.133C349.228 383.148 349.522 383.056 348.656 381.854C347.79 380.652 347.504 380.036 346.867 379.038C346.23 378.039 344.901 376.877 344.406 375.846C343.91 374.815 343.188 373.579 342.34 372.489C341.492 371.399 338.514 365.575 338.514 365.575C336.835 367.407 334.831 368.675 332.201 368.854Z" fill="#FF9978"/>
<path d="M331.039 364.001C331.02 364.013 331.001 364.027 330.982 364.041C331.131 363.998 331.282 363.951 331.436 363.899C331.302 363.883 331.16 363.916 331.039 364.001ZM340.463 363.316C340.021 362.529 338.652 362.261 337.599 362.299C337.724 362.71 337.845 363.101 337.958 363.472C338.632 363.503 339.306 363.694 339.424 363.883C339.412 363.918 339.363 364.039 339.138 364.245C338.958 364.408 338.689 364.588 338.35 364.775C336.659 365.711 333.28 366.809 331.23 366.858C330.897 366.868 330.601 366.849 330.35 366.797C330.165 366.759 330.076 366.714 330.035 366.691C330.068 366.497 330.373 366.121 330.794 365.726C330.65 365.355 330.496 364.96 330.333 364.544C329.574 365.18 328.701 366.119 328.874 366.956C328.947 367.311 329.222 367.772 330.111 367.956C330.39 368.013 330.709 368.039 331.059 368.039C331.253 368.039 331.456 368.032 331.667 368.015C333.866 367.852 336.877 366.878 338.693 365.927C339.23 365.648 339.66 365.371 339.937 365.118C340.82 364.309 340.645 363.639 340.463 363.316Z" fill="#FF535A"/>
<path d="M338.398 358.014C337.942 357.456 336.96 357.326 336.059 357.409C336.184 357.802 336.31 358.187 336.43 358.565C336.926 358.553 337.359 358.627 337.475 358.752C337.47 358.787 337.442 358.917 337.255 359.159C337.141 359.306 336.978 359.471 336.773 359.649C335.335 360.9 331.873 362.756 329.776 363.125C329.506 363.175 329.258 363.198 329.041 363.191C328.852 363.186 328.757 363.158 328.715 363.141C328.713 362.938 328.966 362.491 329.332 362.006C329.169 361.597 328.999 361.181 328.826 360.755C328.147 361.514 327.268 362.727 327.615 363.602C327.75 363.938 328.1 364.344 329.005 364.373H329.104C329.437 364.373 329.811 364.326 330.215 364.238C330.461 364.188 330.716 364.122 330.981 364.042C331.13 363.999 331.281 363.952 331.435 363.9C333.431 363.224 335.746 361.949 337.151 360.859C337.61 360.504 337.972 360.168 338.194 359.88C338.923 358.929 338.635 358.302 338.398 358.014Z" fill="#FFC149"/>
<path d="M249.907 278.163C249.907 278.163 242.651 267.439 247.588 258.467C252.525 249.495 264.264 249.54 267.335 250.019C270.407 250.498 288.37 257.526 279.128 278.033L249.907 278.163Z" fill="#00246C"/>
<path d="M250.79 274.935C250.79 274.935 247.918 271.587 246.146 274.628C244.373 277.669 247.713 286.086 252.383 283.671L250.79 274.935Z" fill="#FF7A5D"/>
<path d="M251.159 281.082C250.981 281.094 250.811 280.987 250.749 280.811C249.83 278.205 247.009 277.309 246.98 277.3C246.766 277.234 246.644 277.006 246.71 276.792C246.776 276.577 247.003 276.456 247.218 276.522C247.35 276.562 250.458 277.54 251.517 280.541C251.592 280.753 251.481 280.985 251.269 281.06C251.232 281.073 251.195 281.08 251.159 281.082Z" fill="#EF4B47"/>
<path d="M248.295 279.927C248.22 279.932 248.142 279.916 248.071 279.877C247.874 279.768 247.803 279.52 247.912 279.323C247.93 279.29 248.368 278.516 249.356 277.994C249.554 277.888 249.801 277.965 249.906 278.163C250.011 278.362 249.935 278.608 249.737 278.713C248.973 279.117 248.628 279.712 248.624 279.718C248.555 279.844 248.428 279.918 248.295 279.927Z" fill="#EF4B47"/>
<path d="M278.004 273.15C278.004 273.15 280.414 269.456 282.568 272.238C284.723 275.021 282.511 283.802 277.565 282.019L278.004 273.15Z" fill="#FF7A5D"/>
<path d="M278.441 279.293C278.619 279.281 278.774 279.153 278.813 278.971C279.384 276.267 282.064 275.01 282.091 274.998C282.295 274.904 282.386 274.663 282.292 274.459C282.199 274.255 281.957 274.164 281.753 274.257C281.628 274.314 278.674 275.689 278.016 278.803C277.97 279.023 278.11 279.239 278.33 279.285C278.368 279.292 278.405 279.295 278.441 279.293Z" fill="#EF4B47"/>
<path d="M281.13 277.773C281.206 277.768 281.281 277.742 281.345 277.694C281.526 277.56 281.563 277.305 281.43 277.124C281.408 277.094 280.872 276.384 279.825 275.995C279.615 275.916 279.38 276.024 279.302 276.235C279.224 276.446 279.331 276.68 279.542 276.758C280.352 277.059 280.772 277.603 280.776 277.609C280.862 277.725 280.997 277.782 281.13 277.773Z" fill="#EF4B47"/>
<path d="M271.953 289.712L272.514 298.264C272.514 298.264 270.249 302.786 266.82 303.309C263.394 303.835 260.067 299.986 260.067 299.986L259.486 291.134L271.953 289.712Z" fill="#FF9978"/>
<path d="M271.953 289.712L272.202 293.507C270.056 296.227 265.988 297.138 259.847 296.639L259.486 291.134L271.953 289.712Z" fill="#FF7A5D"/>
<path d="M279.529 267.158C279.589 270.491 279.544 274.668 279.129 278.033C279.025 278.872 278.897 279.664 278.744 280.376C277.358 286.795 273.565 297.897 260.668 294.223C254.972 292.601 251.985 286.571 250.422 280.341C249.361 276.11 248.959 271.791 248.813 268.696C248.667 265.535 250.2 262.538 252.844 260.802C260.006 256.097 267.958 257.154 273.256 258.802C276.934 259.943 279.46 263.315 279.529 267.158Z" fill="#FF9978"/>
<path d="M259.817 256.225C259.817 256.225 278.196 281.807 279.848 271.873C282.188 257.795 271.691 249.869 259.817 256.225Z" fill="#00246C"/>
<path d="M259.126 256.267C248.065 257.074 243.386 270.01 248.616 271.162C255.893 272.765 261.424 262.25 263.099 258.618C261.761 257.857 260.422 257.098 259.126 256.267Z" fill="#00246C"/>
<path d="M278.894 248.964C279.291 255.008 274.712 260.23 268.668 260.626C262.624 261.022 257.402 256.444 257.006 250.4C256.61 244.356 261.188 239.134 267.232 238.738C273.276 238.341 278.497 242.92 278.894 248.964Z" fill="#00246C"/>
<path d="M250.828 269.818C250.828 269.818 251.909 273.106 250.881 275.433C249.853 277.759 250.751 281.572 251.566 285.87C251.566 285.87 249.525 283.352 249.138 279.127C248.752 274.902 249.212 271.336 248.518 269.681L250.828 269.818Z" fill="#00246C"/>
<path d="M276.959 268.104C276.959 268.104 276.317 271.506 277.641 273.678C278.964 275.85 278.571 279.748 278.326 284.115C278.326 284.115 280.021 281.352 279.852 277.113C279.683 272.874 278.761 269.399 279.232 267.667L276.959 268.104Z" fill="#00246C"/>
<path d="M258.88 274.908C258.94 275.821 258.518 276.592 257.937 276.63C257.356 276.668 256.837 275.959 256.777 275.046C256.717 274.133 257.139 273.362 257.72 273.324C258.301 273.286 258.82 273.995 258.88 274.908Z" fill="#00246C"/>
<path d="M271.857 274.057C271.917 274.97 271.495 275.741 270.914 275.779C270.334 275.817 269.815 275.108 269.755 274.195C269.695 273.282 270.117 272.511 270.697 272.473C271.278 272.435 271.797 273.144 271.857 274.057Z" fill="#00246C"/>
<path d="M255.425 270.193C256.282 269.889 258.017 269.352 259.876 269.225C260.365 269.192 260.769 269.602 260.714 270.089L260.712 270.101C260.668 270.49 260.342 270.785 259.951 270.792C258.682 270.816 255.372 271.212 253.845 271.95C253.795 271.679 253.937 271.37 254.148 271.09C254.467 270.667 254.924 270.37 255.425 270.193Z" fill="#00246C"/>
<path d="M272.406 269.113C271.517 268.924 269.726 268.618 267.867 268.734C267.377 268.765 267.031 269.225 267.149 269.701L267.152 269.713C267.246 270.093 267.608 270.342 267.997 270.299C269.258 270.157 272.592 270.117 274.202 270.65C274.216 270.375 274.035 270.087 273.789 269.837C273.418 269.458 272.926 269.224 272.406 269.113Z" fill="#00246C"/>
<path d="M265.066 282.076C264.755 282.097 264.439 282.062 264.169 281.923C263.922 281.796 263.608 281.528 263.513 280.97C263.261 279.487 263.336 274.782 263.339 274.582C263.343 274.357 263.528 274.178 263.753 274.182C263.978 274.186 264.157 274.371 264.153 274.596C264.152 274.644 264.076 279.425 264.316 280.834C264.358 281.079 264.464 281.16 264.541 281.199C264.937 281.403 265.803 281.111 266.16 280.938C266.362 280.839 266.606 280.924 266.704 281.126C266.802 281.328 266.719 281.571 266.517 281.67C266.414 281.72 265.751 282.032 265.066 282.076Z" fill="#FF7A5D"/>
<path d="M260.075 284.98C260.483 286.505 261.691 289.281 265.13 289.056C268.577 288.83 269.374 286.168 269.588 284.356L260.075 284.98Z" fill="white"/>
<path d="M265.236 291.43C264.244 291.495 263.332 291.018 263.294 290.998C263.095 290.892 263.02 290.646 263.125 290.447C263.23 290.248 263.476 290.173 263.675 290.278C263.682 290.282 264.425 290.667 265.183 290.617C266.002 290.563 266.708 290.081 266.715 290.077C266.9 289.949 267.153 289.995 267.281 290.179C267.409 290.363 267.364 290.616 267.18 290.745C267.144 290.77 266.287 291.361 265.236 291.43Z" fill="#FF7A5D"/>
<path d="M310.315 408.504C310.145 409.242 309.885 409.947 309.523 410.604C309.407 410.817 309.28 411.023 309.142 411.224C301.348 422.58 282.43 408.391 282.43 408.391C282.967 413.745 284.603 417.883 285.102 441.883C285.355 454.04 286.949 478.52 286.949 478.52L285.627 478.804L284.227 479.102L276.62 480.727C276.62 480.727 272.569 464.566 269.715 446.318C266.958 428.684 251.899 381.949 265.686 376.617C279.473 371.285 305.017 390.167 305.017 390.167C305.017 390.167 312.065 401.052 310.315 408.504Z" fill="#FFC149"/>
<path d="M310.315 408.504C310.145 409.242 309.885 409.947 309.523 410.604C307.255 411.654 303.628 412.224 298.39 409.989C289.974 406.399 281.974 402.282 278.959 400.698C279.779 405.955 282.525 424.289 282.371 433.154C282.229 441.371 284.689 468.72 285.627 478.803L284.227 479.101C283.3 469.136 280.808 441.459 280.952 433.13C281.127 423.061 277.374 399.752 277.336 399.517C277.294 399.25 277.405 398.982 277.625 398.824C277.845 398.668 278.136 398.651 278.375 398.779C278.472 398.833 288.383 404.178 298.946 408.683C304.769 411.169 308.335 409.975 310.315 408.504Z" fill="#FF9D1E"/>
<path d="M278.674 481.533L280.723 492.822C283.97 495.823 287.223 494.465 290.48 489.292L288.278 479.101L278.674 481.533Z" fill="#FF9978"/>
<path d="M288.125 475.221C289.584 477.596 289.816 478.697 289.847 480.844C289.847 480.844 284.508 483.937 277.08 485.738L275.186 479.976C275.186 479.976 279.877 478.073 288.125 475.221Z" fill="#FF9D1E"/>
<path d="M286.313 489.773C286.313 489.773 283.933 487.02 279.697 489.217C275.461 491.413 276.938 496.256 276.938 496.256C276.938 496.256 273.957 506.384 272.619 508.848C269.92 513.82 269.095 514.285 270.107 517.174C271.573 521.361 280.355 521.181 283.258 515.484C286.161 509.788 294.508 496.764 293.776 494.735C291.485 488.388 289.843 485.555 289.843 485.555C289.8 487.017 288.6 489.352 286.313 489.773Z" fill="#586199"/>
<path d="M282.936 501.279C283.11 501.22 283.26 501.093 283.343 500.914C283.504 500.566 283.353 500.153 283.006 499.991C282.89 499.937 280.13 498.67 277.872 499.015C274.867 499.47 274.031 501.946 273.997 502.052C273.878 502.417 274.078 502.809 274.443 502.927C274.808 503.046 275.2 502.846 275.318 502.48C275.341 502.413 275.942 500.716 278.08 500.389C279.92 500.108 282.395 501.241 282.419 501.252C282.59 501.33 282.773 501.335 282.936 501.279Z" fill="white"/>
<path d="M283.491 498.484C283.664 498.425 283.814 498.298 283.898 498.119C284.059 497.771 283.909 497.358 283.56 497.196C283.444 497.142 280.684 495.875 278.426 496.219C275.418 496.675 274.585 499.15 274.551 499.256C274.432 499.621 274.632 500.013 274.998 500.131C275.363 500.25 275.755 500.05 275.873 499.684C275.896 499.617 276.498 497.92 278.635 497.593C280.483 497.312 282.949 498.445 282.974 498.457C283.143 498.535 283.328 498.54 283.491 498.484Z" fill="white"/>
<path d="M281.569 504.201C281.743 504.142 281.893 504.015 281.976 503.836C282.137 503.488 281.987 503.075 281.639 502.913C281.522 502.859 278.763 501.592 276.505 501.936C273.498 502.391 272.664 504.867 272.63 504.972C272.512 505.337 272.712 505.729 273.077 505.847C273.441 505.966 273.834 505.766 273.952 505.4C273.975 505.333 274.577 503.635 276.714 503.309C278.562 503.028 281.028 504.161 281.053 504.173C281.221 504.252 281.405 504.257 281.569 504.201Z" fill="white"/>
<path d="M283.551 501.217C283.725 501.158 283.875 501.031 283.958 500.852C284.119 500.504 283.968 500.091 283.621 499.929C283.505 499.875 280.745 498.608 278.487 498.953C275.482 499.408 274.646 501.884 274.612 501.99C274.493 502.355 274.693 502.747 275.058 502.865C275.423 502.984 275.815 502.784 275.933 502.418C275.956 502.351 276.557 500.654 278.695 500.327C280.535 500.046 283.01 501.179 283.034 501.19C283.204 501.268 283.388 501.272 283.551 501.217Z" fill="white"/>
<path d="M284.106 498.422C284.279 498.363 284.429 498.236 284.513 498.057C284.674 497.709 284.524 497.296 284.175 497.134C284.059 497.08 281.299 495.813 279.041 496.157C276.033 496.613 275.2 499.088 275.166 499.194C275.047 499.559 275.247 499.951 275.613 500.069C275.977 500.188 276.37 499.988 276.488 499.622C276.511 499.555 277.113 497.858 279.251 497.531C281.099 497.25 283.565 498.383 283.59 498.395C283.758 498.473 283.942 498.477 284.106 498.422Z" fill="white"/>
<path d="M282.183 504.139C282.357 504.08 282.507 503.953 282.59 503.774C282.751 503.426 282.601 503.013 282.253 502.851C282.136 502.797 279.377 501.53 277.119 501.874C274.112 502.329 273.278 504.805 273.244 504.91C273.126 505.275 273.326 505.667 273.691 505.785C274.055 505.904 274.448 505.704 274.566 505.338C274.589 505.271 275.191 503.573 277.329 503.247C279.177 502.966 281.643 504.099 281.668 504.111C281.836 504.189 282.02 504.194 282.183 504.139Z" fill="white"/>
<path d="M433.291 621.277C433.291 623.975 411.552 626.162 384.737 626.162C357.921 626.162 336.183 623.975 336.183 621.277C336.183 618.579 357.921 616.392 384.737 616.392C411.552 616.392 433.291 618.579 433.291 621.277Z" fill="#E1EDF7"/>
<path d="M374.695 420.092C374.695 420.092 357.097 428.739 326.834 463.498C324.873 465.751 322.001 472.375 323.334 476.166C325.029 480.987 327.323 485.959 342.63 495.276C372.289 513.329 402.308 522.939 402.308 522.939L408.334 512.544C408.334 512.544 386.769 496.426 378.879 490.446C370.989 484.467 359.586 475.419 352.121 475.75C352.121 475.75 394.796 452.866 400.723 427.641C403.023 417.848 374.695 420.092 374.695 420.092Z" fill="#2E60E2"/>
<path d="M401.374 521.288L412.472 528.447L415.428 517.703L405.935 512.608L401.374 521.288Z" fill="#FF9978"/>
<path d="M412.667 524.874C412.667 524.874 409.118 526.32 408.791 528.113C408.464 529.906 415.747 546.268 415.436 551.148C415.125 556.029 419.974 556.822 420.477 554.876C421.926 549.271 429.681 518.345 429.681 518.345C429.681 518.345 419.15 514.562 415.545 514.893C411.939 515.224 414.388 521.439 412.667 524.874Z" fill="#FFC149"/>
<path d="M418.258 534.323C418.35 534.171 418.382 533.983 418.332 533.799C418.234 533.44 417.865 533.229 417.507 533.326C417.387 533.358 414.554 534.141 413.096 535.804C411.154 538.015 412.079 540.37 412.12 540.469C412.259 540.813 412.652 540.979 412.996 540.839C413.34 540.7 413.506 540.307 413.366 539.962C413.341 539.898 412.729 538.267 414.108 536.691C415.296 535.336 417.834 534.632 417.86 534.625C418.033 534.577 418.172 534.465 418.258 534.323Z" fill="white"/>
<path d="M416.926 531.907C417.017 531.756 417.049 531.568 417 531.383C416.903 531.024 416.533 530.813 416.174 530.91C416.054 530.943 413.22 531.725 411.763 533.388C409.82 535.601 410.746 537.954 410.786 538.053C410.926 538.397 411.318 538.563 411.662 538.423C412.006 538.284 412.172 537.891 412.031 537.546C412.007 537.482 411.394 535.85 412.773 534.275C413.966 532.915 416.499 532.216 416.525 532.209C416.7 532.161 416.839 532.05 416.926 531.907Z" fill="white"/>
<path d="M419.067 537.34C419.159 537.188 419.191 537 419.141 536.816C419.043 536.457 418.674 536.245 418.315 536.342C418.195 536.375 415.361 537.157 413.904 538.82C411.961 541.032 412.887 543.386 412.927 543.485C413.067 543.829 413.459 543.995 413.803 543.855C414.147 543.716 414.313 543.323 414.173 542.979C414.148 542.915 413.536 541.282 414.915 539.708C416.108 538.348 418.641 537.649 418.666 537.642C418.841 537.594 418.98 537.482 419.067 537.34Z" fill="white"/>
<path d="M406.787 509.546C409.7 510.462 410.683 511.206 412.252 512.96C412.252 512.96 410.058 519.354 405.207 526.18L399.501 522.774C399.501 522.774 402.014 517.831 406.787 509.546Z" fill="#2E4ACC"/>
<path d="M470.781 496.949L470.484 499.251L470.322 500.517L469.239 508.864C469.239 508.864 437.843 511.605 403.513 506.418C385.786 503.738 377.988 498.77 374.551 494.991C372.539 492.784 371.13 487.118 372.064 484.283C386.541 440.527 397.349 423.332 397.349 423.332C397.349 423.332 412.282 417.205 421.309 417.415C421.77 417.424 422.217 417.45 422.641 417.5C425.266 417.78 427.214 418.748 427.827 420.776C437.799 453.456 400.64 486.012 400.64 486.012C407.405 482.82 425.243 483.241 434.833 485.709C444.419 488.168 470.781 496.949 470.781 496.949Z" fill="#5480FD"/>
<path d="M470.98 500.123C470.902 500.343 470.715 500.478 470.516 500.516C470.451 500.524 470.386 500.532 470.322 500.517C470.276 500.516 470.225 500.506 470.17 500.487C469.918 500.39 444.691 490.611 428.885 488.363C416.296 486.582 402.959 488.839 397.812 489.887C397.154 490.018 396.48 489.779 396.07 489.254C395.66 488.729 395.576 488.026 395.85 487.427C396.942 485.043 399.258 480.91 404.049 474.681L404.631 473.912C410.935 465.751 425.203 447.276 422.751 424.898C422.483 422.443 422.013 419.946 421.308 417.413C421.769 417.422 422.216 417.448 422.64 417.498C423.344 420.1 423.803 422.67 424.065 425.185C426.37 447.827 412.002 466.429 405.627 474.682L405.041 475.442C400.321 481.579 398.058 485.631 396.99 487.946C396.87 488.198 397 488.398 397.059 488.473C397.118 488.548 397.29 488.717 397.559 488.658C402.775 487.588 416.284 485.307 429.061 487.123C444.388 489.301 468.404 498.458 470.484 499.249C470.571 499.288 470.612 499.302 470.626 499.307C470.952 499.44 471.116 499.807 470.98 500.123Z" fill="#2E60E2"/>
<path d="M467.742 507.702L480.744 510.015L479.318 498.964L468.593 497.934L467.742 507.702Z" fill="#FF9978"/>
<path d="M479.543 506.645C479.543 506.645 476.829 509.35 477.22 511.13C477.611 512.91 490.652 525.186 492.252 529.807C493.852 534.428 498.63 533.286 498.342 531.297C497.512 525.568 492.712 494.048 492.712 494.048C492.712 494.048 481.537 494.629 478.34 496.328C475.141 498.026 479.802 502.812 479.543 506.645Z" fill="#FFC149"/>
<path d="M488.351 513.199C488.377 513.023 488.334 512.838 488.217 512.687C487.988 512.394 487.566 512.342 487.273 512.569C487.175 512.645 484.864 514.462 484.162 516.559C483.226 519.348 484.989 521.163 485.065 521.239C485.326 521.502 485.753 521.503 486.016 521.241C486.279 520.979 486.281 520.553 486.018 520.289C485.971 520.24 484.775 518.972 485.438 516.985C486.01 515.276 488.079 513.646 488.1 513.63C488.242 513.52 488.327 513.363 488.351 513.199Z" fill="white"/>
<path d="M486.189 511.485C486.215 511.31 486.172 511.124 486.054 510.973C485.826 510.68 485.403 510.627 485.11 510.855C485.012 510.931 482.701 512.748 481.999 514.845C481.062 517.637 482.826 519.449 482.901 519.525C483.163 519.789 483.589 519.79 483.852 519.527C484.116 519.266 484.117 518.839 483.854 518.576C483.807 518.526 482.611 517.258 483.274 515.272C483.848 513.556 485.915 511.933 485.936 511.917C486.079 511.807 486.165 511.651 486.189 511.485Z" fill="white"/>
<path d="M490.263 515.668C490.289 515.492 490.246 515.307 490.129 515.156C489.9 514.863 489.478 514.81 489.185 515.038C489.087 515.115 486.776 516.931 486.074 519.028C485.137 521.82 486.901 523.632 486.976 523.708C487.238 523.971 487.664 523.972 487.927 523.71C488.19 523.449 488.192 523.022 487.929 522.759C487.882 522.709 486.685 521.44 487.349 519.455C487.923 517.739 489.99 516.116 490.011 516.1C490.153 515.99 490.239 515.833 490.263 515.668Z" fill="white"/>
<path d="M468.196 494.781C471.237 494.5 472.431 494.806 474.555 495.818C474.555 495.818 475.003 502.563 473.167 510.734L466.588 509.798C466.588 509.798 466.995 504.267 468.196 494.781Z" fill="#2E60E2"/>
<path d="M389.202 338.883C389.202 338.883 388.237 339.122 386.598 339.484C377.997 341.4 350.791 346.8 346.442 339.652C344.073 335.757 340.684 324.889 337.704 314.245C337.363 313.02 337.025 311.798 336.697 310.589C336.366 309.385 336.044 308.194 335.735 307.028C335.399 305.77 335.075 304.543 334.763 303.356C332.675 295.382 331.597 288.718 331.597 288.718H331.616C334.501 288.697 336.986 288.077 339.8 286.33C339.817 286.32 339.831 286.311 339.847 286.302C339.847 286.302 342.311 292.545 344.95 298.991C345.437 300.178 345.929 301.372 346.411 302.536C346.905 303.721 347.39 304.875 347.851 305.955C348.402 307.251 348.92 308.443 349.379 309.464C349.589 309.93 349.786 310.363 349.968 310.75C352.543 316.258 354.816 324.56 355.419 326.837C355.421 326.849 355.426 326.861 355.428 326.873C355.523 327.232 355.572 327.433 355.572 327.433C355.884 327.388 356.22 327.338 356.582 327.284C356.594 327.282 356.608 327.279 356.622 327.277C365.705 325.891 389.178 321.862 389.178 321.862C392.017 329.308 389.202 338.883 389.202 338.883Z" fill="#00C484"/>
<path d="M356.583 327.284C354.015 330.543 351.572 332.527 351.437 332.633C351.328 332.72 351.198 332.763 351.068 332.763C350.893 332.763 350.723 332.687 350.607 332.543C350.401 332.288 350.442 331.916 350.697 331.713C350.728 331.687 352.996 329.845 355.42 326.837C355.422 326.849 355.427 326.861 355.429 326.873C355.524 327.232 355.573 327.433 355.573 327.433C355.885 327.388 356.221 327.338 356.583 327.284Z" fill="#009B76"/>
<path d="M339.621 286.665C339.621 286.665 342.428 281.665 341.658 279.032C340.888 276.399 341.071 276.07 341.049 273.666C341.027 271.262 340.638 270.391 340.019 270.326C338 270.115 338.835 274.392 338.308 275.802C337.781 277.212 337.456 276.691 336.98 276.1C336.504 275.508 334.879 263.296 333.397 262.662C331.915 262.028 333.922 271.293 333.552 272.588C333.486 272.818 332.811 272.67 332.027 270.215C331.244 267.76 329.876 262.299 328.498 262.573C327.119 262.847 330.64 272.173 330.163 273.445C329.848 274.286 326.897 265.26 325.793 266.031C324.689 266.802 328.407 274.931 327.921 275.808C327.435 276.685 324.758 270.595 323.895 271.245C322.486 272.306 327.118 278.617 327.661 280.993C328.203 283.369 330.683 287.764 332.003 289.166C335.534 289.183 336.804 288.775 339.621 286.665Z" fill="#F37855"/>
<path d="M346.411 302.534C343.666 304.059 340.092 305.705 335.734 307.027C335.398 305.769 335.074 304.542 334.762 303.355C338.967 302.059 342.386 300.442 344.949 298.99C345.437 300.176 345.929 301.37 346.411 302.534Z" fill="#009B76"/>
<path d="M349.379 309.463C346.425 311.102 342.514 312.88 337.704 314.245C337.363 313.02 337.025 311.797 336.697 310.589C341.341 309.258 345.087 307.513 347.852 305.954C348.402 307.249 348.92 308.441 349.379 309.463Z" fill="#009B76"/>
<path d="M475.78 326.677C476.453 326.402 476.839 326.282 476.839 326.282C476.839 326.282 476.828 326.179 476.822 325.97C476.789 324.91 476.852 321.14 478.837 314.71C479.645 312.092 480.462 307.947 481.201 303.482C481.405 302.248 481.605 300.986 481.794 299.725C481.982 298.5 482.16 297.273 482.332 296.073C482.514 294.775 482.687 293.508 482.849 292.301C483.6 286.65 484.644 282.363 484.644 282.363C487.425 282.868 489.982 283.343 492.969 282.457C492.969 282.457 493.937 286.904 493.808 293.553C493.783 294.762 493.752 296.035 493.712 297.359C493.676 298.554 493.631 299.789 493.576 301.052C493.522 302.299 493.458 303.573 493.387 304.861C492.615 318.367 490.677 333.546 485.934 336.979C473.912 345.678 440.641 348.351 431.696 346.635C431.696 346.635 434.369 338.563 433.935 334.483C433.501 330.404 433.136 324.199 433.136 324.199C433.136 324.199 441.668 329.473 451.456 330.006C461.242 330.54 475.78 326.677 475.78 326.677Z" fill="#00C484"/>
<path d="M482.784 330.175C482.641 330.469 482.287 330.593 481.993 330.45C481.909 330.412 481.298 330.114 480.401 329.62C479.182 328.95 477.437 327.917 475.78 326.677C476.465 326.433 476.839 326.282 476.839 326.282C476.839 326.282 476.828 326.179 476.822 325.97C479.551 327.951 482.461 329.363 482.508 329.386C482.805 329.528 482.924 329.88 482.784 330.175Z" fill="#009B76"/>
<path d="M484.642 282.364C484.642 282.364 480.784 278.122 480.942 275.384C481.1 272.646 480.849 272.366 480.33 270.018C479.811 267.67 479.995 266.734 480.583 266.532C482.503 265.873 482.65 270.228 483.481 271.484C484.312 272.74 484.511 272.159 484.842 271.476C485.173 270.792 484.013 258.528 485.314 257.577C486.615 256.626 486.742 266.105 487.394 267.284C487.51 267.493 488.135 267.197 488.347 264.629C488.559 262.061 488.664 256.432 490.069 256.39C491.474 256.347 490.139 266.225 490.889 267.358C491.385 268.107 492.232 258.648 493.481 259.151C494.73 259.654 492.934 268.411 493.605 269.157C494.275 269.902 495.516 263.366 496.503 263.806C498.114 264.524 495.018 271.714 495.024 274.151C495.03 276.588 493.736 281.179 492.765 282.842C489.696 283.331 487.338 283.503 484.642 282.364Z" fill="#F37855"/>
<path d="M493.71 297.36C490.569 297.341 486.697 297.025 482.33 296.073C482.512 294.775 482.685 293.508 482.847 292.301C487.071 293.237 490.811 293.537 493.806 293.553C493.781 294.762 493.75 296.035 493.71 297.36Z" fill="#009B76"/>
<path d="M493.385 304.861C490.08 304.865 485.923 304.547 481.2 303.482C481.404 302.248 481.604 300.986 481.793 299.725C486.387 300.775 490.428 301.067 493.575 301.052C493.52 302.299 493.456 303.573 493.385 304.861Z" fill="#009B76"/>
<path d="M434.735 433.838C434.735 433.838 431.873 434.772 428.744 434.517C428.333 432.104 428.279 431.608 427.869 429.105C430.144 430.152 433.844 431.908 434.735 433.838Z" fill="#009B76"/>
<path d="M437.785 376.031C437.435 377.282 437.087 378.512 436.747 379.715C436.158 381.803 435.591 383.808 435.061 385.693C435.028 385.816 434.992 385.939 434.959 386.062C434.666 387.112 434.413 388.242 434.193 389.441C433.836 391.406 433.573 393.551 433.387 395.8C433.278 397.105 433.198 398.448 433.139 399.811C433.042 401.989 433.007 404.221 433.014 406.451C433.016 407.849 433.038 409.246 433.071 410.627C433.376 422.831 434.736 433.837 434.736 433.837C421.905 424.51 376.914 418.493 365.781 424.104C365.781 424.104 370.082 413.777 374.778 401.432C375.258 400.172 375.736 398.89 376.209 397.594C376.978 395.494 377.73 393.359 378.444 391.226C378.872 389.949 379.288 388.674 379.683 387.409C380.359 385.252 380.984 383.119 381.532 381.055C381.875 379.759 382.192 378.487 382.468 377.252C382.903 375.337 383.248 373.506 383.49 371.799C383.533 371.503 383.573 371.203 383.613 370.903C383.781 369.671 383.942 368.401 384.093 367.105C386.396 347.686 387.259 322.139 389.18 321.86C391.256 321.557 411.848 316.896 411.848 316.896L423.922 318.485C423.922 318.485 438.579 327.592 443.545 330.616C449.07 333.983 443.042 357.259 437.785 376.031Z" fill="#00C484"/>
<path d="M437.785 376.031C437.435 377.282 437.087 378.512 436.747 379.715C424.429 374.304 410.205 372.167 399.301 371.367C393.462 370.939 388.071 370.849 383.611 370.903C383.779 369.671 383.94 368.401 384.091 367.105C388.499 367.065 393.768 367.169 399.509 367.587C408.845 368.268 417.469 369.651 425.145 371.697C429.693 372.909 433.914 374.356 437.785 376.031Z" fill="#009B76"/>
<path d="M435.061 385.693C435.028 385.816 434.992 385.939 434.959 386.062C434.666 387.112 434.413 388.242 434.193 389.441C422.107 384.338 408.339 382.29 397.724 381.512C391.663 381.067 386.087 380.987 381.53 381.056C381.873 379.76 382.19 378.488 382.466 377.253C386.886 377.208 392.171 377.312 397.932 377.733C407.266 378.414 415.89 379.795 423.566 381.841C427.669 382.933 431.507 384.22 435.061 385.693Z" fill="#009B76"/>
<path d="M433.387 395.8C433.278 397.105 433.198 398.448 433.139 399.811C420.927 394.54 406.916 392.445 396.145 391.655C389.398 391.161 383.25 391.118 378.442 391.227C378.87 389.95 379.286 388.675 379.681 387.41C384.33 387.337 390.057 387.417 396.352 387.876C405.686 388.557 414.31 389.94 421.986 391.986C426.054 393.068 429.859 394.343 433.387 395.8Z" fill="#009B76"/>
<path d="M433.07 410.627C420.516 404.862 405.783 402.622 394.565 401.799C386.797 401.229 379.823 401.258 374.777 401.432C375.257 400.172 375.735 398.89 376.208 397.594C381.155 397.466 387.594 397.497 394.774 398.02C404.11 398.701 412.734 400.084 420.41 402.13C424.943 403.338 429.15 404.781 433.014 406.45C433.016 407.848 433.037 409.246 433.07 410.627Z" fill="#009B76"/>
<path d="M426.846 332.881C415.388 332.881 408.148 324.206 407.839 323.829C407.632 323.577 407.669 323.204 407.921 322.997C408.174 322.79 408.546 322.827 408.753 323.079C408.827 323.169 416.276 332.081 427.595 331.685C427.924 331.672 428.195 331.929 428.206 332.255C428.218 332.581 427.962 332.855 427.636 332.866C427.371 332.876 427.107 332.881 426.846 332.881Z" fill="#009B76"/>
<path d="M420.762 336.243C420.757 336.243 420.751 336.243 420.745 336.243C414.884 336.08 410.592 331.677 410.412 331.49C410.186 331.254 410.193 330.88 410.429 330.654C410.665 330.428 411.038 330.435 411.265 330.671C411.325 330.733 415.423 334.913 420.778 335.061C421.104 335.07 421.361 335.342 421.352 335.668C421.344 335.989 421.081 336.243 420.762 336.243Z" fill="#009B76"/>
<path d="M422.245 415.383C422.18 415.383 422.114 415.372 422.05 415.35C411.137 411.53 389.124 414.091 388.903 414.118C388.579 414.158 388.285 413.925 388.246 413.601C388.208 413.277 388.439 412.983 388.763 412.944C389.677 412.835 411.267 410.323 422.441 414.234C422.749 414.342 422.911 414.679 422.804 414.987C422.717 415.231 422.489 415.383 422.245 415.383Z" fill="#009B76"/>
<path d="M405.974 285.373C404.213 295.122 410.689 304.453 420.438 306.213C430.187 307.974 438.593 301.274 440.354 291.525C442.115 281.776 436.563 272.67 426.814 270.909C417.065 269.148 407.735 275.624 405.974 285.373Z" fill="#00246C"/>
<path d="M408.047 290.848C408.047 290.848 405.924 286.615 403.288 289.322C400.652 292.029 401.947 301.666 407.439 300.362L408.047 290.848Z" fill="#DB5138"/>
<path d="M405.793 298.34C405.793 298.772 405.442 299.123 405.01 299.123C404.578 299.123 404.227 298.772 404.227 298.34C404.227 297.908 404.578 297.557 405.01 297.557C405.443 297.557 405.793 297.907 405.793 298.34Z" fill="white"/>
<path d="M406.836 297.348C406.648 297.314 406.497 297.159 406.478 296.959C406.197 294.005 403.491 292.34 403.463 292.323C403.257 292.198 403.19 291.93 403.314 291.723C403.438 291.516 403.706 291.449 403.913 291.573C404.04 291.649 407.024 293.474 407.348 296.876C407.371 297.116 407.194 297.33 406.954 297.353C406.915 297.357 406.875 297.355 406.836 297.348Z" fill="#9B231C"/>
<path d="M404.152 295.401C404.072 295.387 403.995 295.35 403.932 295.291C403.755 295.126 403.746 294.849 403.91 294.673C403.937 294.644 404.595 293.951 405.76 293.663C405.993 293.605 406.231 293.748 406.289 293.983C406.347 294.217 406.204 294.454 405.969 294.512C405.068 294.735 404.554 295.265 404.549 295.27C404.445 295.382 404.294 295.426 404.152 295.401Z" fill="#9B231C"/>
<path d="M425.249 311.554L423.613 320.609C423.613 320.609 421.351 323.795 417.645 323.423C411.468 322.803 410.319 318.506 410.319 318.506L411.891 309.799L425.249 311.554Z" fill="#F37855"/>
<path d="M425.249 311.554L424.523 315.572C421.582 317.849 417.107 317.742 410.838 315.628L411.891 309.799L425.249 311.554Z" fill="#DB5138"/>
<path d="M435.755 301.249C435.43 302.096 435.092 302.889 434.746 303.591C434.403 304.286 434.016 305.037 433.581 305.807C430.061 312.036 423.429 319.711 412.32 313.323C406.805 310.157 405.261 303.099 405.248 296.202C405.246 294.547 405.333 292.9 405.473 291.32C405.73 288.431 406.173 285.762 406.595 283.654C407.265 280.324 409.64 277.597 412.846 276.474C421.529 273.433 429.539 276.599 434.632 279.69C438.166 281.836 439.922 286.004 438.997 290.025C438.194 293.513 437.064 297.852 435.755 301.249Z" fill="#F37855"/>
<path d="M432.839 297.554H432.837C432.837 297.554 431.905 302.064 429.98 305.173C429.933 305.246 429.888 305.32 429.841 305.393C429.82 305.348 429.796 305.306 429.768 305.263C427.722 301.699 418.313 302.887 418.313 302.887C418.313 302.887 413.723 300.711 410.419 300.7C409.282 300.698 408.295 300.951 407.702 301.639C407.589 301.272 407.496 300.844 407.421 300.369C407.277 299.466 407.194 298.399 407.147 297.288C407.126 296.744 407.111 296.191 407.104 295.637C407.102 295.606 407.102 295.575 407.102 295.545C407.085 294.339 407.1 293.152 407.114 292.126L407.109 292.124L405.934 291.547L405.475 291.32C405.432 291.795 405.395 292.28 405.364 292.77C405.352 292.954 405.34 293.139 405.331 293.323C405.319 293.484 405.312 293.645 405.305 293.805C405.3 293.883 405.298 293.964 405.295 294.044C405.283 294.285 405.274 294.529 405.269 294.772C405.255 295.247 405.248 295.725 405.248 296.203C405.248 296.671 405.258 297.139 405.274 297.605C405.288 298.087 405.314 298.567 405.35 299.045C405.378 299.48 405.416 299.913 405.463 300.343C405.997 305.368 407.639 310.034 411.368 312.708C411.671 312.928 411.99 313.131 412.321 313.323C417.287 316.177 421.357 316.225 424.656 314.844C428.735 313.139 431.634 309.254 433.583 305.808C433.661 305.475 433.737 305.139 433.81 304.805C433.992 303.991 434.162 303.19 434.316 302.433C434.63 300.898 434.883 299.555 435.042 298.687C435.139 298.16 435.2 297.81 435.219 297.703C435.221 297.679 435.224 297.668 435.224 297.668L432.839 297.554ZM423.527 310.892C423.132 311.008 422.737 311.1 422.342 311.173C419.244 311.738 416.177 311.043 414.524 310.296C414.375 310.23 414.228 310.159 414.084 310.088C413.171 309.634 412.346 309.081 411.525 308.348C409.917 306.913 410.603 304.245 412.719 303.834C413.109 303.758 413.544 303.721 414.036 303.725C415.242 303.741 416.777 304.032 418.737 304.718C422.566 304.543 424.403 305.342 425.207 306.411C425.444 306.723 425.59 307.057 425.673 307.397C426.043 308.931 425.04 310.445 423.527 310.892Z" fill="#00246C"/>
<path d="M414.542 293.241C414.368 294.208 413.728 294.901 413.113 294.79C412.499 294.679 412.142 293.806 412.316 292.839C412.491 291.873 413.13 291.179 413.745 291.29C414.36 291.401 414.716 292.275 414.542 293.241Z" fill="#00246C"/>
<path d="M427.572 295.595C427.397 296.561 426.758 297.255 426.143 297.144C425.528 297.033 425.172 296.16 425.346 295.193C425.52 294.226 426.16 293.533 426.775 293.644C427.39 293.755 427.746 294.628 427.572 295.595Z" fill="#00246C"/>
<path d="M410.78 287.012C410.78 287.012 415.742 286.018 419.03 288.203L418.434 289.805C418.434 289.805 414.727 288.245 410.691 288.973C410.593 288.166 410.338 287.743 410.78 287.012Z" fill="#00246C"/>
<path d="M431.976 290.84C431.976 290.84 427.675 288.173 423.83 289.069L423.829 290.778C423.829 290.778 427.847 290.613 431.374 292.707C431.748 291.987 432.135 291.679 431.976 290.84Z" fill="#00246C"/>
<path d="M419.462 301.241C420.188 301.372 420.959 301.22 421.079 301.194C421.315 301.144 421.465 300.912 421.415 300.676C421.366 300.44 421.133 300.289 420.897 300.339C420.48 300.426 419.503 300.505 419.142 300.19C419.072 300.129 418.983 300.017 419.003 299.751C419.119 298.221 420.439 293.26 420.453 293.21C420.516 292.977 420.377 292.737 420.144 292.675C419.91 292.612 419.671 292.751 419.609 292.985C419.554 293.192 418.254 298.075 418.132 299.685C418.086 300.291 418.344 300.652 418.568 300.848C418.813 301.064 419.133 301.182 419.462 301.241Z" fill="#DB5138"/>
<path d="M413.03 304.373C413.062 306.205 413.643 309.671 417.579 310.382C421.525 311.095 423.169 308.321 423.919 306.34L413.03 304.373Z" fill="white"/>
<path d="M407.087 293.638C407.082 291.805 407.175 289.458 407.62 288.326C408.414 286.325 410.354 285.414 410.143 283.308C409.933 281.194 412.438 279.424 414.064 279.349C415.686 279.269 419.188 280.703 423.081 279.648C426.797 278.639 432.535 280.877 433.109 283.249C433.802 286.12 432.16 286.083 434.842 289.536C435.909 290.913 433.859 293.616 433.294 295.513C433.036 296.386 432.943 296.818 432.806 297.782L432.731 298.27L436.563 298.962C437.528 296.036 438.367 292.769 438.999 290.023C439.926 286.001 438.164 281.835 434.631 279.69C429.538 276.598 421.531 273.431 412.844 276.475C409.64 277.599 407.263 280.321 406.598 283.653C406.08 286.24 405.532 289.673 405.331 293.322L407.087 293.638Z" fill="#00246C"/>
<path d="M434.565 300.31C434.734 299.306 434.986 298.316 435.339 297.361C435.822 296.055 436.435 294.901 437.918 294.588C439.111 294.336 440.299 294.541 440.917 295.946C442.439 299.404 438.391 308.579 433.702 305.437L434.565 300.31Z" fill="#F37855"/>
<path d="M437.404 304.373C437.404 304.806 437.053 305.156 436.621 305.156C436.188 305.156 435.838 304.805 435.838 304.373C435.838 303.941 436.189 303.59 436.621 303.59C437.054 303.59 437.404 303.941 437.404 304.373Z" fill="white"/>
<path d="M435.19 302.822C435.381 302.818 435.554 302.689 435.605 302.495C436.354 299.624 439.292 298.412 439.321 298.4C439.545 298.31 439.654 298.055 439.564 297.832C439.474 297.609 439.22 297.499 438.997 297.588C438.86 297.643 435.622 298.968 434.759 302.274C434.698 302.508 434.838 302.746 435.072 302.807C435.112 302.818 435.151 302.822 435.19 302.822Z" fill="#DB5138"/>
<path d="M438.151 301.328C438.232 301.327 438.314 301.303 438.386 301.254C438.586 301.12 438.64 300.848 438.506 300.648C438.484 300.614 437.946 299.826 436.841 299.356C436.62 299.261 436.363 299.365 436.268 299.587C436.173 299.809 436.277 300.066 436.499 300.16C437.353 300.523 437.776 301.129 437.779 301.135C437.865 301.262 438.007 301.331 438.151 301.328Z" fill="#DB5138"/>
<path d="M418.483 292.32C418.528 292.056 418.513 291.794 418.447 291.548C418.272 290.875 417.726 290.33 416.998 290.191L410.569 288.96C410.063 288.863 409.569 288.981 409.174 289.248C408.957 289.395 408.774 289.586 408.636 289.813C408.519 290 408.434 290.209 408.391 290.437L408.234 291.259C407.967 292.652 408.258 294.087 409.033 295.2C409.807 296.305 410.799 296.993 411.988 297.247L412.157 297.28C413.533 297.544 414.929 297.258 416.094 296.472C417.276 295.676 418.074 294.466 418.343 293.066L418.476 292.371C418.48 292.353 418.483 292.335 418.483 292.32ZM417.585 292.918C417.355 294.116 416.673 295.149 415.664 295.829C414.668 296.5 413.476 296.744 412.303 296.519L412.149 296.489C411.16 296.276 410.325 295.694 409.669 294.756C409.011 293.815 408.765 292.591 408.993 291.403L409.15 290.581C409.263 289.989 409.833 289.603 410.424 289.716L416.853 290.948C417.442 291.061 417.831 291.631 417.718 292.222L417.585 292.918Z" fill="white"/>
<path d="M432.132 294.476C432.114 294.213 432.034 293.959 431.91 293.731C431.651 293.265 431.195 292.91 430.631 292.802L424.199 291.57C423.453 291.427 422.725 291.752 422.319 292.342C422.182 292.539 422.081 292.766 422.031 293.013C422.026 293.025 422.024 293.035 422.022 293.048L421.865 293.87C421.598 295.263 421.892 296.698 422.667 297.811C423.438 298.915 424.434 299.604 425.619 299.857L425.791 299.89C427.166 300.153 428.563 299.868 429.728 299.082C430.908 298.286 431.709 297.076 431.977 295.676L432.11 294.981C432.141 294.81 432.15 294.641 432.132 294.476ZM431.217 295.53C430.987 296.728 430.305 297.761 429.294 298.44C428.3 299.112 427.108 299.355 425.935 299.131L425.778 299.101C424.789 298.888 423.954 298.306 423.298 297.368C422.642 296.427 422.395 295.203 422.622 294.015L422.779 293.193C422.892 292.601 423.464 292.215 424.053 292.328L430.485 293.56C431.074 293.673 431.463 294.243 431.349 294.834L431.217 295.53Z" fill="white"/>
<path d="M409.175 289.247C408.589 288.8 407.029 287.795 404.631 287.523L404.773 288.325C406.761 288.604 408.094 289.42 408.636 289.812C408.816 289.941 408.91 290.024 408.914 290.028L409.434 289.46C409.418 289.443 409.331 289.363 409.175 289.247Z" fill="white"/>
<path d="M418.216 292.347L418.104 291.583C418.152 291.576 419.287 291.414 420.456 291.638C421.701 291.876 422.43 292.412 422.46 292.435L421.998 293.054C421.993 293.05 421.37 292.599 420.311 292.396C419.274 292.198 418.227 292.346 418.216 292.347Z" fill="white"/>
<path d="M440.025 293.908C436.233 293.04 431.696 293.883 431.614 293.905L431.875 294.792C434.625 294.354 436.621 294.142 439.596 294.634L440.025 293.908Z" fill="white"/>
</g>
<defs>
<clipPath id="clip0_2_70">
<rect width="1280" height="691" fill="white"/>
</clipPath>
</defs>
</svg>
