<svg width="1280" height="832" viewBox="0 0 1280 832" fill="none" xmlns="http://www.w3.org/2000/svg">
<g clip-path="url(#clip0_2_549)">
<rect width="1280" height="832" transform="matrix(-1 0 0 1 1280 0)" fill="white"/>
<path d="M571.92 579.107H391.174C387.942 579.107 385.312 576.477 385.312 573.245V309.971C385.312 306.739 387.942 304.109 391.174 304.109H571.92C575.152 304.109 577.782 306.738 577.782 309.971V573.244C577.783 576.477 575.153 579.107 571.92 579.107ZM391.174 304.359C388.079 304.359 385.562 306.877 385.562 309.971V573.244C385.562 576.339 388.08 578.856 391.174 578.856H571.92C575.015 578.856 577.532 576.338 577.532 573.244V309.971C577.532 306.877 575.014 304.359 571.92 304.359H391.174Z" fill="#E0E0E0"/>
<path d="M363.493 579.107H182.746C179.514 579.107 176.884 576.477 176.884 573.245V309.971C176.884 306.739 179.513 304.109 182.746 304.109H363.493C366.725 304.109 369.355 306.738 369.355 309.971V573.244C369.355 576.477 366.725 579.107 363.493 579.107ZM182.746 304.359C179.652 304.359 177.134 306.877 177.134 309.971V573.244C177.134 576.339 179.652 578.856 182.746 578.856H363.493C366.588 578.856 369.105 576.338 369.105 573.244V309.971C369.105 306.877 366.587 304.359 363.493 304.359H182.746Z" fill="#E0E0E0"/>
<path d="M628 655.82H128V656.07H628V655.82Z" fill="#E0E0E0"/>
<path d="M195.732 670.084H179.672V670.334H195.732V670.084Z" fill="#E0E0E0"/>
<path d="M351.882 667.374H298.352V667.624H351.882V667.374Z" fill="#E0E0E0"/>
<path d="M232.982 679.374H196.732V679.624H232.982V679.374Z" fill="#E0E0E0"/>
<path d="M549.542 667.244H506.352V667.494H549.542V667.244Z" fill="#E0E0E0"/>
<path d="M564.782 667.244H558.452V667.494H564.782V667.244Z" fill="#E0E0E0"/>
<path d="M498.102 673.474H444.212V673.724H498.102V673.474Z" fill="#E0E0E0"/>
<path d="M219.849 326.558C218.093 330.011 217.065 333.704 216.712 337.435L210.965 338.627L212.214 349.874L218.083 349.776C219.244 353.337 221.059 356.715 223.53 359.699L220.318 364.592L229.155 371.662L233.223 367.455C236.677 369.211 240.37 370.24 244.1 370.591L245.292 376.338L256.539 375.088L256.441 369.22C260.003 368.057 263.38 366.243 266.365 363.772L271.258 366.984L278.328 358.147L274.121 354.078C275.876 350.624 276.905 346.931 277.257 343.201L283.003 342.009L281.754 330.762L275.886 330.86C274.724 327.298 272.909 323.921 270.438 320.937L273.65 316.044L264.813 308.975L260.745 313.182C257.291 311.426 253.598 310.397 249.868 310.045L248.676 304.298L237.429 305.548L237.527 311.416C233.965 312.578 230.588 314.392 227.604 316.863L222.711 313.651L215.641 322.488L219.849 326.558ZM256.438 328.249C262.691 333.252 263.705 342.377 258.702 348.631C253.699 354.885 244.573 355.898 238.32 350.895C232.066 345.892 231.053 336.767 236.056 330.513C241.059 324.26 250.184 323.246 256.438 328.249Z" fill="#F5F5F5"/>
<path d="M517.361 506.321C515.605 509.774 514.577 513.467 514.224 517.198L508.477 518.39L509.726 529.637L515.595 529.539C516.756 533.1 518.571 536.478 521.042 539.462L517.83 544.355L526.667 551.424L530.735 547.217C534.189 548.972 537.882 550.002 541.612 550.353L542.804 556.1L554.051 554.85L553.953 548.982C557.515 547.819 560.892 546.005 563.877 543.534L568.77 546.746L575.84 537.909L571.633 533.84C573.388 530.386 574.417 526.693 574.769 522.963L580.515 521.771L579.266 510.524L573.398 510.622C572.236 507.061 570.421 503.683 567.95 500.699L571.162 495.806L562.325 488.737L558.257 492.944C554.803 491.188 551.11 490.159 547.38 489.807L546.187 484.06L534.94 485.31L535.038 491.178C531.476 492.34 528.099 494.154 525.115 496.625L520.222 493.413L513.152 502.25L517.361 506.321ZM553.95 508.013C560.203 513.016 561.217 522.141 556.214 528.395C551.211 534.649 542.085 535.662 535.832 530.659C529.578 525.656 528.565 516.531 533.568 510.277C538.572 504.024 547.696 503.01 553.95 508.013Z" fill="#F5F5F5"/>
<path d="M285.256 297.082C284.413 298.74 283.919 300.514 283.75 302.306L280.99 302.878L281.59 308.279L284.409 308.232C284.967 309.942 285.838 311.564 287.025 312.997L285.482 315.347L289.726 318.742L291.68 316.722C293.339 317.565 295.112 318.059 296.904 318.228L297.476 320.988L302.877 320.388L302.83 317.57C304.541 317.012 306.163 316.14 307.596 314.954L309.946 316.496L313.341 312.252L311.321 310.298C312.164 308.639 312.658 306.866 312.827 305.074L315.587 304.501L314.987 299.1L312.169 299.147C311.611 297.437 310.739 295.815 309.553 294.382L311.095 292.032L306.851 288.637L304.897 290.657C303.238 289.814 301.464 289.319 299.673 289.15L299.1 286.39L293.699 286.99L293.746 289.808C292.035 290.366 290.413 291.237 288.981 292.424L286.631 290.882L283.236 295.126L285.256 297.082ZM302.828 297.895C305.831 300.298 306.318 304.68 303.915 307.683C301.512 310.686 297.13 311.173 294.127 308.77C291.124 306.367 290.637 301.985 293.04 298.982C295.442 295.979 299.825 295.492 302.828 297.895Z" fill="#F5F5F5"/>
<path d="M551.569 456.993C550.726 458.651 550.232 460.425 550.062 462.217L547.302 462.789L547.902 468.191L550.721 468.144C551.279 469.854 552.15 471.476 553.337 472.91L551.794 475.26L556.038 478.655L557.992 476.635C559.651 477.478 561.424 477.972 563.216 478.141L563.788 480.901L569.189 480.301L569.142 477.483C570.853 476.925 572.475 476.053 573.908 474.867L576.258 476.409L579.653 472.165L577.632 470.211C578.475 468.552 578.969 466.779 579.138 464.987L581.898 464.414L581.298 459.013L578.48 459.06C577.922 457.35 577.05 455.728 575.864 454.295L577.407 451.945L573.163 448.55L571.209 450.57C569.55 449.727 567.776 449.232 565.985 449.063L565.412 446.303L560.011 446.903L560.058 449.721C558.347 450.279 556.726 451.15 555.292 452.337L552.942 450.795L549.547 455.039L551.569 456.993ZM569.141 457.805C572.144 460.208 572.631 464.59 570.228 467.593C567.825 470.596 563.443 471.083 560.44 468.681C557.437 466.278 556.95 461.896 559.353 458.893C561.756 455.89 566.138 455.403 569.141 457.805Z" fill="#F5F5F5"/>
<path d="M247.299 283.114C246.528 284.63 246.077 286.251 245.922 287.888L243.4 288.411L243.948 293.347L246.524 293.304C247.034 294.867 247.83 296.349 248.915 297.659L247.505 299.806L251.383 302.909L253.169 301.063C254.685 301.834 256.306 302.285 257.943 302.44L258.466 304.963L263.402 304.414L263.359 301.838C264.923 301.328 266.405 300.532 267.714 299.447L269.862 300.857L272.965 296.979L271.119 295.193C271.889 293.677 272.341 292.056 272.495 290.419L275.017 289.896L274.469 284.96L271.893 285.003C271.383 283.44 270.586 281.957 269.502 280.648L270.912 278.501L267.033 275.398L265.248 277.244C263.732 276.473 262.111 276.022 260.474 275.867L259.951 273.345L255.015 273.894L255.058 276.47C253.495 276.98 252.012 277.776 250.703 278.861L248.556 277.451L245.453 281.33L247.299 283.114ZM263.358 283.857C266.102 286.053 266.547 290.058 264.352 292.802C262.156 295.547 258.151 295.991 255.406 293.796C252.661 291.6 252.216 287.595 254.412 284.85C256.609 282.106 260.614 281.661 263.358 283.857Z" fill="#F5F5F5"/>
<path d="M379.275 415.005H196.695C190.996 415.005 188.519 407.796 193.015 404.293L279.27 337.096L375.595 262.055C377.759 260.369 380.791 260.369 382.955 262.055L479.28 337.096L565.535 404.293C570.031 407.796 567.554 415.005 561.855 415.005H379.275Z" fill="#EBEBEB"/>
<path d="M267.05 415.004H232.168V617.449H267.05V415.004Z" fill="#EBEBEB"/>
<path d="M346.113 415.004H311.231V617.449H346.113V415.004Z" fill="#EBEBEB"/>
<path d="M453.19 415.004H418.308V617.449H453.19V415.004Z" fill="#EBEBEB"/>
<path d="M530.856 415.004H495.974V617.449H530.856V415.004Z" fill="#EBEBEB"/>
<path d="M557.709 436.656H200.842C200.5 436.656 200.223 436.379 200.223 436.037V415.623C200.223 415.281 200.5 415.004 200.842 415.004H557.709C558.051 415.004 558.328 415.281 558.328 415.623V436.037C558.328 436.379 558.051 436.656 557.709 436.656Z" fill="#EBEBEB"/>
<path d="M278.286 610.012H221.271V619.363H278.286V610.012Z" fill="#EBEBEB"/>
<path d="M357.18 610.012H300.165V619.363H357.18V610.012Z" fill="#EBEBEB"/>
<path d="M464.256 610.012H407.242V619.363H464.256V610.012Z" fill="#EBEBEB"/>
<path d="M541.922 610.012H484.908V619.363H541.922V610.012Z" fill="#EBEBEB"/>
<g opacity="0.7">
<path d="M240.89 391.879L375.324 287.15C377.648 285.34 380.904 285.34 383.228 287.15L519.85 393.585C520.602 394.171 520.188 395.377 519.234 395.377H242.091C240.23 395.377 239.422 393.023 240.89 391.879Z" stroke="#E0E0E0" stroke-miterlimit="10"/>
</g>
<path d="M274.614 436.656H225.995V445.976H274.614V436.656Z" fill="#EBEBEB"/>
<path d="M353.289 436.656H304.67V445.976H353.289V436.656Z" fill="#EBEBEB"/>
<path d="M460.219 436.656H411.6V445.976H460.219V436.656Z" fill="#EBEBEB"/>
<path d="M537.725 436.656H489.106V445.976H537.725V436.656Z" fill="#EBEBEB"/>
<path d="M226.156 445.988C242.255 445.988 258.354 445.988 274.453 445.988" stroke="#E0E0E0" stroke-miterlimit="10" stroke-linecap="round" stroke-linejoin="round"/>
<path d="M304.964 445.988C321.063 445.988 337.162 445.988 353.261 445.988" stroke="#E0E0E0" stroke-miterlimit="10" stroke-linecap="round" stroke-linejoin="round"/>
<path d="M411.761 445.988C427.86 445.988 443.959 445.988 460.058 445.988" stroke="#E0E0E0" stroke-miterlimit="10" stroke-linecap="round" stroke-linejoin="round"/>
<path d="M489.428 445.988C505.527 445.988 521.626 445.988 537.725 445.988" stroke="#E0E0E0" stroke-miterlimit="10" stroke-linecap="round" stroke-linejoin="round"/>
<path d="M277.739 610.012C258.86 610.012 239.981 610.012 221.102 610.012" stroke="#E0E0E0" stroke-miterlimit="10" stroke-linecap="round" stroke-linejoin="round"/>
<path d="M357.748 610.012C338.869 610.012 319.99 610.012 301.111 610.012" stroke="#E0E0E0" stroke-miterlimit="10" stroke-linecap="round" stroke-linejoin="round"/>
<path d="M463.878 610.012C444.999 610.012 426.12 610.012 407.241 610.012" stroke="#E0E0E0" stroke-miterlimit="10" stroke-linecap="round" stroke-linejoin="round"/>
<path d="M541.545 610.012C522.666 610.012 503.787 610.012 484.908 610.012" stroke="#E0E0E0" stroke-miterlimit="10" stroke-linecap="round" stroke-linejoin="round"/>
<path d="M574.965 655.82H181.035L190.89 617.449H562.732L574.965 655.82Z" fill="#EBEBEB"/>
<path opacity="0.1" d="M186.324 634.82H568.129L570.423 641.82H184.442L186.324 634.82Z" fill="black"/>
<path opacity="0.1" d="M239.715 604.035C238.279 604.035 237.114 602.871 237.114 601.434V460.571C237.114 459.135 238.278 457.971 239.715 457.971C241.151 457.971 242.316 459.135 242.316 460.571V601.435C242.315 602.871 241.151 604.035 239.715 604.035Z" fill="black"/>
<path opacity="0.1" d="M249.778 604.035C248.342 604.035 247.177 602.871 247.177 601.434V460.571C247.177 459.135 248.341 457.971 249.778 457.971C251.214 457.971 252.379 459.135 252.379 460.571V601.435C252.379 602.871 251.215 604.035 249.778 604.035Z" fill="black"/>
<path opacity="0.1" d="M259.842 604.035C258.406 604.035 257.242 602.871 257.242 601.434V460.571C257.242 459.135 258.406 457.971 259.842 457.971C261.278 457.971 262.443 459.135 262.443 460.571V601.435C262.443 602.871 261.278 604.035 259.842 604.035Z" fill="black"/>
<path opacity="0.1" d="M318.46 604.035C317.024 604.035 315.859 602.871 315.859 601.434V460.571C315.859 459.135 317.023 457.971 318.46 457.971C319.896 457.971 321.061 459.135 321.061 460.571V601.435C321.061 602.871 319.897 604.035 318.46 604.035Z" fill="black"/>
<path opacity="0.1" d="M328.524 604.035C327.088 604.035 325.924 602.871 325.924 601.434V460.571C325.924 459.135 327.088 457.971 328.524 457.971C329.96 457.971 331.124 459.135 331.124 460.571V601.435C331.124 602.871 329.96 604.035 328.524 604.035Z" fill="black"/>
<path opacity="0.1" d="M338.588 604.035C337.152 604.035 335.987 602.871 335.987 601.434V460.571C335.987 459.135 337.151 457.971 338.588 457.971C340.024 457.971 341.188 459.135 341.188 460.571V601.435C341.188 602.871 340.024 604.035 338.588 604.035Z" fill="black"/>
<path opacity="0.1" d="M425.685 604.035C424.249 604.035 423.085 602.871 423.085 601.434V460.571C423.085 459.135 424.249 457.971 425.685 457.971C427.121 457.971 428.286 459.135 428.286 460.571V601.435C428.286 602.871 427.121 604.035 425.685 604.035Z" fill="black"/>
<path opacity="0.1" d="M435.749 604.035C434.313 604.035 433.148 602.871 433.148 601.434V460.571C433.148 459.135 434.312 457.971 435.749 457.971C437.185 457.971 438.35 459.135 438.35 460.571V601.435C438.349 602.871 437.185 604.035 435.749 604.035Z" fill="black"/>
<path opacity="0.1" d="M445.813 604.035C444.377 604.035 443.212 602.871 443.212 601.434V460.571C443.212 459.135 444.376 457.971 445.813 457.971C447.249 457.971 448.414 459.135 448.414 460.571V601.435C448.413 602.871 447.249 604.035 445.813 604.035Z" fill="black"/>
<path opacity="0.1" d="M503.512 604.035C502.076 604.035 500.912 602.871 500.912 601.434V460.571C500.912 459.135 502.076 457.971 503.512 457.971C504.948 457.971 506.113 459.135 506.113 460.571V601.435C506.113 602.871 504.949 604.035 503.512 604.035Z" fill="black"/>
<path opacity="0.1" d="M513.576 604.035C512.14 604.035 510.975 602.871 510.975 601.434V460.571C510.975 459.134 512.139 457.97 513.576 457.97C515.012 457.97 516.176 459.134 516.176 460.571V601.435C516.177 602.871 515.013 604.035 513.576 604.035Z" fill="black"/>
<path opacity="0.1" d="M523.64 604.035C522.204 604.035 521.039 602.871 521.039 601.434V460.571C521.039 459.135 522.203 457.971 523.64 457.971C525.076 457.971 526.24 459.135 526.24 460.571V601.435C526.24 602.871 525.076 604.035 523.64 604.035Z" fill="black"/>
<path d="M200.929 415.916C322.38 415.916 443.83 415.916 565.281 415.916" stroke="#E0E0E0" stroke-miterlimit="10" stroke-linecap="round" stroke-linejoin="round"/>
<path d="M380.961 364.915V370.068L377.188 370.08L377.178 364.955C372.658 364.68 368.282 363.224 365.908 361.087L367.964 356.44C370.651 358.449 373.85 359.659 377.194 359.931L377.179 350.697C372.065 349.465 366.577 347.797 366.533 341.383C366.528 336.691 369.937 332.585 377.116 331.88L377.134 326.764L380.906 326.752L380.92 331.863C384.224 332.005 387.44 332.972 390.276 334.675L388.39 339.319C386.099 337.983 383.553 337.141 380.917 336.846L380.936 346.158C386.05 347.39 391.621 348.995 391.61 355.39C391.618 360.082 388.159 364.155 380.961 364.915ZM377.162 345.154L377.161 336.956C373.904 337.484 372.509 339.128 372.505 341.156C372.501 343.185 374.454 344.394 377.125 345.172L377.162 345.154ZM385.808 355.812C385.796 353.562 383.776 352.5 381.055 351.735L381.056 359.887C384.281 359.364 385.712 357.794 385.716 355.811L385.808 355.812Z" fill="#E0E0E0"/>
<path d="M580.271 703.536C580.271 713.076 489.711 720.811 378 720.811C266.289 720.811 175.729 713.077 175.729 703.536C175.729 693.995 266.289 686.261 378 686.261C489.711 686.261 580.271 693.996 580.271 703.536Z" fill="#F5F5F5"/>
<path d="M248.483 661.9C250.843 661.771 253.07 660.623 254.809 659.023C256.548 657.423 257.84 655.394 258.909 653.286C261.746 647.688 263.117 641.356 262.851 635.086C262.794 633.742 262.655 632.368 262.077 631.153C261.5 629.938 260.407 628.894 259.076 628.702C257.087 628.415 255.353 630.004 254.089 631.567C248.354 638.66 245.405 647.946 245.996 657.048C246.142 659.275 246.885 661.427 248.483 661.9Z" fill="#407BFF"/>
<path d="M237.928 649.568C239.869 645.537 240.011 640.761 238.728 636.475C237.445 632.189 234.81 628.38 231.546 625.321C227.967 621.966 223.37 619.388 218.464 619.363C216.372 619.352 214.108 619.913 212.824 621.564C211.457 623.322 211.57 625.821 212.17 627.966C213.152 631.477 215.237 634.603 217.726 637.267C220.215 639.932 223.113 642.176 226.004 644.399C229.262 646.904 232.781 649.497 236.879 649.81" fill="#407BFF"/>
<path d="M237.637 663.171C237.06 658.641 233.542 654.896 229.427 652.915C225.313 650.935 220.652 650.448 216.092 650.22C215.077 650.169 214.037 650.133 213.066 650.435C212.095 650.737 211.191 651.445 210.93 652.428C210.589 653.715 211.405 655.007 212.258 656.03C217.254 662.027 225.071 665.567 232.874 665.366C233.776 665.343 234.696 665.268 235.53 664.922C236.364 664.576 237.109 663.917 237.36 663.049" fill="#407BFF"/>
<path d="M258.348 632.039C251.373 649.092 246.189 666.844 242.891 684.97C242.805 685.442 243.528 685.644 243.614 685.169C246.912 667.042 252.096 649.29 259.071 632.238C259.254 631.792 258.529 631.598 258.348 632.039Z" fill="#263238"/>
<path d="M243.322 679.716C243.59 671.384 242.918 662.963 240.55 654.94C238.218 647.039 234.214 639.721 228.73 633.567C225.258 629.67 221.255 626.293 216.955 623.344C216.556 623.07 216.18 623.72 216.576 623.992C223.876 628.999 230.22 635.336 234.664 643.032C238.716 650.049 241.058 657.92 242.033 665.941C242.588 670.51 242.719 675.119 242.571 679.717C242.557 680.198 243.307 680.198 243.322 679.716Z" fill="#263238"/>
<path d="M242.871 667.924C236.338 660.346 227.211 655.066 217.353 653.302C216.881 653.217 216.679 653.94 217.154 654.025C226.9 655.769 235.882 660.962 242.341 668.455C242.656 668.821 243.184 668.288 242.871 667.924Z" fill="#263238"/>
<path d="M228.086 685.612V675.807H241.743H255.4V685.612C255.4 685.612 255.925 702.946 246.296 704.521H241.744H237.192C227.56 702.945 228.086 685.612 228.086 685.612Z" fill="#407BFF"/>
<path opacity="0.5" d="M228.086 685.612V675.807H241.743H255.4V685.612C255.4 685.612 255.925 702.946 246.296 704.521H241.744H237.192C227.56 702.945 228.086 685.612 228.086 685.612Z" fill="black"/>
<path d="M523.203 668.075C520.843 667.946 518.616 666.798 516.877 665.198C515.138 663.598 513.846 661.569 512.777 659.461C509.94 653.863 508.569 647.531 508.834 641.261C508.891 639.917 509.03 638.543 509.608 637.328C510.185 636.113 511.278 635.07 512.609 634.877C514.598 634.59 516.332 636.179 517.596 637.742C523.33 644.835 526.28 654.121 525.689 663.223C525.545 665.45 524.802 667.602 523.203 668.075Z" fill="#407BFF"/>
<path d="M533.168 658.225C531.227 654.194 531.085 649.418 532.367 645.132C533.65 640.846 536.285 637.037 539.549 633.978C543.128 630.623 547.725 628.045 552.631 628.02C554.723 628.009 556.987 628.57 558.271 630.222C559.638 631.98 559.525 634.479 558.925 636.624C557.943 640.136 555.859 643.261 553.369 645.925C550.88 648.589 547.982 650.834 545.091 653.057C541.833 655.562 538.314 658.155 534.216 658.468" fill="#407BFF"/>
<path d="M512.615 638.414C519.59 655.467 524.774 673.219 528.072 691.345C528.158 691.819 528.881 691.618 528.795 691.146C525.497 673.019 520.313 655.268 513.338 638.215C513.158 637.773 512.432 637.966 512.615 638.414Z" fill="#263238"/>
<path d="M528.524 688.373C528.262 680.216 528.9 671.989 531.174 664.123C533.457 656.225 537.422 648.898 542.896 642.755C546.326 638.906 550.271 635.562 554.519 632.649C554.915 632.378 554.54 631.728 554.14 632.001C546.83 637.014 540.456 643.335 535.957 651.012C531.849 658.021 529.447 665.878 528.399 673.91C527.774 678.704 527.619 683.544 527.774 688.373C527.79 688.854 528.54 688.856 528.524 688.373Z" fill="#263238"/>
<path d="M541.289 683.821V674.016H527.632H513.975V683.821C513.975 683.821 513.45 701.155 523.079 702.73H527.631H532.183C541.814 701.154 541.289 683.821 541.289 683.821Z" fill="#407BFF"/>
<path opacity="0.5" d="M541.289 683.821V674.016H527.632H513.975V683.821C513.975 683.821 513.45 701.155 523.079 702.73H527.631H532.183C541.814 701.154 541.289 683.821 541.289 683.821Z" fill="black"/>
<path d="M512.679 524.731H499.547V571.973H512.679V524.731Z" fill="#407BFF"/>
<path d="M484.698 541.786V554.918H527.529V541.786H484.698Z" fill="#407BFF"/>
<g opacity="0.2">
<path d="M512.679 524.731H499.547V571.973H512.679V524.731Z" fill="black"/>
<path d="M484.698 541.786V554.918H527.529V541.786H484.698Z" fill="black"/>
</g>
<path d="M225.713 436.035H218.417V461.231H225.713V436.035Z" fill="#407BFF"/>
<path d="M210.167 445.13V452.134H233.964V445.13H210.167Z" fill="#407BFF"/>
<path d="M541.373 498.875H534.077V525.123H541.373V498.875Z" fill="#407BFF"/>
<path d="M525.826 508.351V515.647H549.623V508.351H525.826Z" fill="#407BFF"/>
<path d="M238.625 404.214H234.686V418.384H238.625V404.214Z" fill="#407BFF"/>
<path d="M230.232 409.33V413.269H243.078V409.33H230.232Z" fill="#407BFF"/>
<path d="M264.412 541.868H260.473V556.038H264.412V541.868Z" fill="#407BFF"/>
<path d="M256.02 546.983V550.922H268.866V546.983H256.02Z" fill="#407BFF"/>
<path d="M338.771 282.955H334.832V297.125H338.771V282.955Z" fill="#407BFF"/>
<path d="M330.377 288.069V292.008H343.223V288.069H330.377Z" fill="#407BFF"/>
<path d="M539.296 311.413C523.084 305.204 513.703 294.493 513.703 293.608C513.703 294.492 503.45 304.361 487.238 310.57C487.238 310.57 482.312 361.072 512.967 364.904C543.622 361.073 539.296 311.413 539.296 311.413Z" fill="#407BFF"/>
<path opacity="0.2" d="M487.238 310.571C487.238 310.571 482.312 361.073 512.967 364.905L513.703 293.608C513.704 294.493 503.45 304.361 487.238 310.571Z" fill="black"/>
<path d="M516.965 316.687H509.156V344.78H516.965V316.687Z" fill="white"/>
<path d="M500.326 326.829V334.638H525.796V326.829H500.326Z" fill="white"/>
<path d="M536.881 313.107C522.172 307.473 513.66 297.755 513.66 296.952C513.66 297.754 504.357 306.708 489.647 312.342C489.647 312.342 485.177 358.165 512.992 361.641C540.805 358.165 536.881 313.107 536.881 313.107Z" stroke="black" stroke-width="0.5" stroke-miterlimit="10"/>
<path d="M494.281 367.866C421.624 340.037 379.581 292.033 379.581 288.07C379.581 292.033 333.628 336.261 260.971 364.09C260.971 364.09 238.893 590.428 376.281 607.601C513.668 590.428 494.281 367.866 494.281 367.866Z" fill="#407BFF"/>
<path opacity="0.5" d="M494.281 367.866C421.624 340.037 379.581 292.033 379.581 288.07C379.581 292.033 333.628 336.261 260.971 364.09C260.971 364.09 238.893 590.428 376.281 607.601C513.668 590.428 494.281 367.866 494.281 367.866Z" fill="white"/>
<path opacity="0.2" d="M260.972 364.09C260.972 364.09 238.894 590.428 376.282 607.601L379.582 288.07C379.581 292.033 333.628 336.261 260.972 364.09Z" fill="black"/>
<path opacity="0.1" d="M412.812 321.636C412.812 321.636 389.708 362.731 345.767 373.509C301.826 384.287 235.086 398.796 276.539 451.857C317.993 504.918 436.136 465.515 429.089 516.099C422.042 566.684 332.696 592.734 332.696 592.734C332.696 592.734 357.415 606.166 375.841 607.359C375.841 607.359 372.297 591.97 409.605 567.512C446.913 543.054 485.465 503.237 461.837 482.521C438.209 461.805 350.741 481.698 321.309 464.497C291.877 447.296 280.992 402.378 319.183 391.26C357.374 380.142 405.783 448.028 439.614 340.505L412.812 321.636Z" fill="white"/>
<path d="M483.114 375.032C460.573 366.374 439.142 354.821 419.522 340.745C407.121 331.848 395.072 321.967 384.88 310.556C383.428 308.93 381.999 307.268 380.73 305.493C380.271 304.851 379.335 303.701 379.317 302.992C379.305 302.509 378.581 302.509 378.567 302.992C378.551 303.552 377.723 304.499 377.318 305.008C376.238 306.365 375.032 307.625 373.813 308.857C369.625 313.092 365.086 316.988 360.463 320.737C345.098 333.195 328.344 343.992 310.94 353.366C298.103 360.28 284.835 366.38 271.224 371.606C271.054 371.671 270.966 371.788 270.949 371.968C270.77 373.803 270.647 375.645 270.529 377.485C270.207 382.479 270.004 387.48 269.885 392.483C269.708 399.947 269.725 407.415 269.932 414.878C270.185 424.03 270.724 433.176 271.585 442.292C272.539 452.399 273.885 462.473 275.719 472.459C277.652 482.984 280.127 493.419 283.322 503.636C286.482 513.741 290.348 523.646 295.155 533.086C299.866 542.338 305.502 551.147 312.244 559.056C318.895 566.859 326.642 573.736 335.337 579.186C344.558 584.965 354.769 589.064 365.379 591.455C368.296 592.113 371.242 592.645 374.204 593.059C377.091 593.462 380.054 592.744 382.905 592.208C388.568 591.144 394.148 589.631 399.555 587.636C409.491 583.97 418.767 578.675 426.995 572.011C435.066 565.474 442.062 557.688 448.022 549.197C454.093 540.548 459.094 531.175 463.254 521.471C467.453 511.676 470.815 501.534 473.536 491.234C476.231 481.036 478.304 470.677 479.894 460.251C481.359 450.647 482.416 440.982 483.126 431.294C483.741 422.901 484.097 414.489 484.206 406.075C484.288 399.779 484.233 393.481 484.02 387.189C483.902 383.7 483.742 380.211 483.492 376.729C483.46 376.284 483.428 375.84 483.39 375.396C483.348 374.919 482.598 374.914 482.64 375.396C482.851 377.824 482.974 380.261 483.089 382.695C483.397 389.221 483.515 395.757 483.489 402.29C483.451 411.74 483.101 421.189 482.426 430.615C481.615 441.947 480.333 453.25 478.469 464.458C476.461 476.536 473.783 488.517 470.194 500.227C466.56 512.087 461.986 523.693 456.1 534.624C450.368 545.268 443.368 555.276 434.849 563.882C426.253 572.567 416.146 579.689 404.963 584.642C398.926 587.316 392.609 589.348 386.165 590.778C384.482 591.151 382.791 591.484 381.092 591.777C379.359 592.076 377.4 592.6 375.648 592.504C372.21 592.316 368.645 591.435 365.297 590.67C352.989 587.86 341.284 582.727 331.002 575.384C321.245 568.416 312.91 559.599 306.028 549.806C299.023 539.837 293.469 528.894 289.012 517.571C284.479 506.055 281.049 494.12 278.405 482.036C275.835 470.289 274.006 458.385 272.747 446.429C271.632 435.842 270.96 425.209 270.673 414.568C270.447 406.196 270.457 397.816 270.718 389.445C270.872 384.493 271.106 379.541 271.48 374.6C271.524 374.012 271.365 372.555 271.692 372.038C271.701 372.024 271.688 371.993 271.698 371.979C271.771 371.883 270.468 373.079 271.808 372.057C271.747 372.103 272.826 371.792 272.903 371.762C273.312 371.603 273.721 371.443 274.129 371.283C276.823 370.224 279.502 369.13 282.168 368.002C287.563 365.72 292.898 363.298 298.169 360.743C316.004 352.096 333.151 341.943 349.198 330.303C358.609 323.476 368.106 316.201 376.028 307.635C376.887 306.706 377.738 305.754 378.474 304.723C378.822 304.235 379.299 303.625 379.317 302.996C379.067 302.996 378.817 302.996 378.567 302.996C378.587 303.794 379.228 304.624 379.65 305.253C380.593 306.661 381.673 307.982 382.767 309.274C386.649 313.854 390.95 318.086 395.363 322.148C409.947 335.572 426.267 347.164 443.45 357.013C456.1 364.263 469.303 370.53 482.914 375.758C483.365 375.928 483.56 375.203 483.114 375.032Z" fill="black"/>
<path d="M412.092 313.428C425.797 325.61 441.008 336.082 457.309 344.484C461.986 346.895 466.751 349.131 471.589 351.2C472.467 351.575 473.232 350.284 472.346 349.905C455.611 342.747 439.782 333.515 425.334 322.443C421.15 319.237 417.092 315.869 413.153 312.367C412.433 311.728 411.368 312.785 412.092 313.428Z" fill="#407BFF"/>
<path d="M476.038 353.743C478.15 354.636 480.263 355.529 482.375 356.422C482.748 356.58 483.178 356.534 483.401 356.153C483.585 355.839 483.507 355.285 483.132 355.127C481.02 354.234 478.908 353.341 476.795 352.448C476.422 352.29 475.992 352.336 475.769 352.717C475.586 353.032 475.663 353.585 476.038 353.743Z" fill="#407BFF"/>
<path d="M387.497 376.164L382.431 375.147C375.685 379.97 366.317 380.013 359.456 374.641C351.095 368.106 349.619 356.038 356.151 347.689C362.683 339.339 374.751 337.863 383.1 344.394C391.384 350.873 392.915 362.783 386.57 371.127L387.497 376.164Z" fill="#407BFF"/>
<path d="M364.089 356.009C364.836 353.898 366.93 352.408 368.878 352.923C370.081 353.241 371.166 354.434 371.604 355.775C372.081 354.239 373.105 353.246 374.445 352.858C376.38 352.298 378.508 353.738 379.305 355.831C380.102 357.923 379.7 360.443 378.586 362.331C377.472 364.219 373.503 366.184 371.653 367.039C369.784 366.228 366.118 364.352 364.96 362.491C363.802 360.629 363.341 358.12 364.089 356.009Z" fill="white"/>
<path d="M365.531 674.815L369.322 702.955L378.039 700.349L380.195 673.181L365.531 674.815Z" fill="#263238"/>
<path d="M366.435 707.63L374.284 707.744C374.284 707.744 375.883 706.924 376.813 707.05C377.74 707.177 380.963 707.84 380.963 707.84L401.805 708.142C401.651 707.266 401.456 706.485 401.232 705.792C400.958 704.947 400.637 704.23 400.277 703.622C399.016 701.496 397.265 700.72 395.351 700.572C392.435 700.347 383.34 694.084 383.34 694.084C383.34 694.084 380.025 692.871 379.896 689.321C379.847 687.99 377.907 686.339 376.975 686.192C375.073 685.889 373.996 687.081 373.69 688.982L373.338 691.191L368.946 690.441C368.946 690.441 364.5 688.122 364.686 690.315C364.792 691.566 365.464 697.142 365.872 701.564C365.968 702.595 366.057 703.57 366.135 704.426L366.137 704.427C366.313 706.325 366.435 707.63 366.435 707.63Z" fill="#263238"/>
<g opacity="0.3">
<path d="M366.435 707.63L374.284 707.744C374.284 707.744 375.883 706.924 376.813 707.05C377.74 707.177 380.963 707.84 380.963 707.84L401.805 708.142C401.651 707.266 401.456 706.485 401.232 705.792C400.958 704.947 400.637 704.23 400.277 703.622C399.016 701.496 397.265 700.72 395.351 700.572C392.435 700.347 383.34 694.084 383.34 694.084C383.34 694.084 380.025 692.871 379.896 689.321C379.847 687.99 377.907 686.339 376.975 686.192C375.073 685.889 373.996 687.081 373.69 688.982L373.338 691.191L368.946 690.441C368.946 690.441 364.5 688.122 364.686 690.315C364.792 691.566 365.464 697.142 365.872 701.564C365.968 702.595 366.057 703.57 366.135 704.426L366.137 704.427C366.313 706.325 366.435 707.63 366.435 707.63Z" fill="black"/>
</g>
<path d="M387.88 696.424C387.785 696.328 387.636 696.316 387.522 696.389C387 696.725 386.56 697.203 386.256 697.806C386.096 698.124 386.559 698.44 386.721 698.119C386.991 697.583 387.377 697.16 387.832 696.866C387.984 696.768 388.012 696.558 387.885 696.429C387.883 696.427 387.881 696.426 387.88 696.424Z" fill="#407BFF"/>
<path d="M386.236 695.424C386.141 695.328 385.992 695.316 385.878 695.389C385.356 695.725 384.915 696.203 384.612 696.806C384.452 697.124 384.915 697.44 385.076 697.119C385.346 696.583 385.732 696.16 386.187 695.866C386.339 695.768 386.367 695.558 386.239 695.429C386.239 695.426 386.236 695.424 386.236 695.424Z" fill="#407BFF"/>
<path d="M384.539 694.487C384.444 694.391 384.295 694.379 384.181 694.452C383.66 694.787 383.218 695.266 382.914 695.869C382.754 696.187 383.217 696.503 383.379 696.182C383.649 695.646 384.035 695.223 384.49 694.929C384.642 694.831 384.67 694.62 384.543 694.492C384.542 694.49 384.541 694.488 384.539 694.487Z" fill="#407BFF"/>
<path d="M326.627 668.71L322.803 696.762L313.661 697.224L310.701 670.181L326.627 668.71Z" fill="#263238"/>
<path d="M305.877 709.786H326.327C326.327 709.786 326.773 708.927 326.263 706.641C326.185 706.285 326.084 705.893 325.952 705.466C325.945 705.445 325.94 705.424 325.933 705.403C325.742 704.77 325.522 703.992 325.289 703.152C324.352 699.729 323.25 695.255 323.25 695.255C323.25 695.255 319.848 687.971 315.867 689.79C312.375 691.385 313.203 695.951 313.203 695.951C313.203 695.951 312.861 698.631 310.214 700.996C308.577 702.457 306.948 703.587 306.165 705.404C306.019 705.743 305.903 706.105 305.82 706.496C305.811 706.543 305.801 706.593 305.794 706.642C305.631 707.517 305.641 708.543 305.877 709.786Z" fill="#263238"/>
<g opacity="0.3">
<path d="M305.877 709.786H326.327C326.327 709.786 326.773 708.927 326.263 706.641C326.185 706.285 326.084 705.893 325.952 705.466C325.945 705.445 325.94 705.424 325.933 705.403C325.742 704.77 325.522 703.992 325.289 703.152C324.352 699.729 323.25 695.255 323.25 695.255C323.25 695.255 319.848 687.971 315.867 689.79C312.375 691.385 313.203 695.951 313.203 695.951C313.203 695.951 312.861 698.631 310.214 700.996C308.577 702.457 306.948 703.587 306.165 705.404C306.019 705.743 305.903 706.105 305.82 706.496C305.811 706.543 305.801 706.593 305.794 706.642C305.631 707.517 305.641 708.543 305.877 709.786Z" fill="black"/>
</g>
<path d="M314.026 697.097C315.176 696.201 316.685 696.317 317.72 697.326C317.998 697.597 318.425 697.171 318.147 696.899C316.856 695.64 315.012 695.569 313.6 696.67C313.294 696.908 313.724 697.333 314.026 697.097Z" fill="#407BFF"/>
<path d="M313.449 699.007C314.599 698.111 316.108 698.227 317.143 699.236C317.421 699.507 317.848 699.081 317.57 698.809C316.279 697.55 314.435 697.479 313.023 698.58C312.716 698.818 313.146 699.243 313.449 699.007Z" fill="#407BFF"/>
<path d="M312.869 700.763C314.019 699.867 315.528 699.983 316.563 700.992C316.841 701.264 317.268 700.837 316.99 700.565C315.699 699.306 313.855 699.235 312.443 700.336C312.137 700.574 312.566 700.999 312.869 700.763Z" fill="#407BFF"/>
<path d="M310.43 485.673L347.467 494.812L371.755 490.319C371.755 490.319 378.726 579.256 380.241 594.576C381.756 609.896 382.141 692.051 382.141 692.051L362.144 692.551C362.144 692.551 354.979 607.803 353.358 599.514C351.945 592.289 345.901 543.162 341.913 531.387C341.512 533.799 341.1 536.221 340.681 538.624C339.672 549.482 336.438 584.1 335.03 596.982C335.03 596.982 331.971 670.57 328.42 691.939L309.82 691.973C307.365 661.637 307.575 551.573 307.575 551.573L307.578 551.571C306.739 510.97 310.43 485.673 310.43 485.673Z" fill="#263238"/>
<path d="M353.3 411.299C353.3 411.299 363.991 411.296 368.769 417.406C373.547 423.517 388.29 462.833 391.844 468.207C396.062 474.585 398.453 478.924 397.044 480.883C395.571 482.93 386.714 491.316 383.299 488.82C376.917 484.157 363.682 456.83 357.405 444.15C351.129 431.47 353.3 411.299 353.3 411.299Z" fill="#407BFF"/>
<path opacity="0.3" d="M353.035 411.211C353.035 411.211 363.991 411.296 368.769 417.407C373.547 423.518 388.29 462.834 391.844 468.208C396.062 474.586 398.453 478.925 397.044 480.884C395.571 482.931 386.714 491.317 383.299 488.821C376.917 484.158 363.682 456.831 357.405 444.151C351.129 431.47 353.035 411.211 353.035 411.211Z" fill="black"/>
<path d="M442.357 699.544L432.774 699.066L429.344 674.115L443.947 674.685L442.357 699.544Z" fill="#FF9978"/>
<path d="M431.711 695.172H435.12C435.891 695.172 436.605 695.562 437.061 696.185C439.027 698.87 440.505 697.855 442.643 695.331C444.002 695.172 444.369 696.733 444.479 697.152L447.028 706.423C447.249 707.197 446.801 708.004 446.027 708.226C445.889 708.265 445.747 708.284 445.603 708.282C441.463 708.282 439.504 708.282 434.351 708.282H418.591C414.295 708.282 413.405 703.953 415.174 703.552C423.132 701.793 428.767 699.452 431.226 697.137C431.684 696.731 431.216 696.428 431.711 695.172Z" fill="#263238"/>
<path d="M426.628 698.332C427.704 698.306 428.775 698.168 429.822 697.92C429.92 697.885 429.971 697.776 429.936 697.678C429.917 697.625 429.875 697.583 429.822 697.564C429.343 697.33 425.081 695.338 424.012 696.095C423.812 696.225 423.704 696.459 423.734 696.696C423.739 697.138 423.954 697.551 424.313 697.809C425.009 698.225 425.82 698.408 426.628 698.332ZM429.154 697.664C427.896 697.898 425.559 698.209 424.591 697.486C424.34 697.289 424.186 696.993 424.168 696.674C424.148 696.574 424.193 696.472 424.28 696.418C424.87 696.006 427.385 696.885 429.154 697.664Z" fill="#407BFF"/>
<path d="M429.778 697.931C429.822 697.944 429.868 697.944 429.912 697.931C429.969 697.881 429.991 697.802 429.968 697.731C429.968 697.553 428.966 693.357 426.629 693.624C426.05 693.702 425.883 693.98 425.861 694.214C425.716 695.327 428.399 697.431 429.678 697.965L429.778 697.931ZM426.862 693.958C428.342 693.958 429.199 696.407 429.489 697.386C428.098 696.651 426.15 694.904 426.273 694.225C426.273 694.169 426.273 694.014 426.707 693.969L426.862 693.958Z" fill="#407BFF"/>
<path d="M429.344 697.803C430.518 697.963 431.608 698.665 432.239 699.668" stroke="#407BFF" stroke-width="0.5" stroke-miterlimit="10" stroke-linecap="round" stroke-linejoin="round"/>
<path d="M427.226 699.398C428.4 699.558 429.49 700.26 430.121 701.263" stroke="#407BFF" stroke-width="0.5" stroke-miterlimit="10" stroke-linecap="round" stroke-linejoin="round"/>
<path d="M424.589 700.739C425.763 700.899 426.853 701.601 427.484 702.604" stroke="#407BFF" stroke-width="0.5" stroke-miterlimit="10" stroke-linecap="round" stroke-linejoin="round"/>
<path d="M408.553 699.544L398.97 699.066L395.541 674.115L410.143 674.685L408.553 699.544Z" fill="#FF9978"/>
<path d="M397.908 695.172H401.317C402.088 695.172 402.802 695.562 403.258 696.185C405.224 698.87 406.702 697.855 408.84 695.331C410.199 695.172 410.566 696.733 410.676 697.152L413.225 706.423C413.446 707.197 412.998 708.004 412.224 708.226C412.086 708.265 411.943 708.284 411.8 708.282C407.66 708.282 405.701 708.282 400.548 708.282H384.788C380.492 708.282 379.602 703.953 381.371 703.552C389.329 701.793 394.964 699.452 397.423 697.137C397.88 696.731 397.412 696.428 397.908 695.172Z" fill="#263238"/>
<path d="M392.824 698.332C393.9 698.306 394.971 698.168 396.018 697.92C396.116 697.885 396.167 697.776 396.132 697.678C396.113 697.625 396.071 697.583 396.018 697.564C395.539 697.33 391.277 695.338 390.208 696.095C390.008 696.225 389.9 696.459 389.93 696.696C389.935 697.138 390.15 697.551 390.509 697.809C391.206 698.225 392.017 698.408 392.824 698.332ZM395.351 697.664C394.093 697.898 391.756 698.209 390.788 697.486C390.537 697.289 390.383 696.993 390.365 696.674C390.345 696.574 390.39 696.472 390.476 696.418C391.066 696.006 393.581 696.885 395.351 697.664Z" fill="#407BFF"/>
<path d="M395.974 697.931C396.018 697.944 396.064 697.944 396.108 697.931C396.165 697.881 396.187 697.802 396.164 697.731C396.164 697.553 395.162 693.357 392.825 693.624C392.246 693.702 392.079 693.98 392.057 694.214C391.912 695.327 394.595 697.431 395.875 697.965L395.974 697.931ZM393.058 693.958C394.538 693.958 395.395 696.407 395.685 697.386C394.294 696.651 392.346 694.904 392.468 694.225C392.468 694.169 392.468 694.014 392.902 693.969L393.058 693.958Z" fill="#407BFF"/>
<path d="M395.541 697.803C396.715 697.963 397.805 698.665 398.436 699.668" stroke="#407BFF" stroke-width="0.5" stroke-miterlimit="10" stroke-linecap="round" stroke-linejoin="round"/>
<path d="M393.422 699.398C394.596 699.558 395.686 700.26 396.317 701.263" stroke="#407BFF" stroke-width="0.5" stroke-miterlimit="10" stroke-linecap="round" stroke-linejoin="round"/>
<path d="M390.786 700.739C391.96 700.899 393.05 701.601 393.681 702.604" stroke="#407BFF" stroke-width="0.5" stroke-miterlimit="10" stroke-linecap="round" stroke-linejoin="round"/>
<path d="M446.184 416.333C444.33 410.601 443.492 404.542 443.721 398.522C443.824 395.817 444.14 393.112 443.971 390.41C443.802 387.708 443.099 384.95 441.397 382.845C439.695 380.74 436.847 379.428 434.221 380.08L425.038 387.874C424.38 399.173 424.78 410.614 427.415 421.621C427.937 423.799 428.658 426.126 430.473 427.438C432.374 428.813 434.935 428.694 437.275 428.516C439.175 428.372 441.104 428.221 442.889 427.556C444.675 426.891 446.329 425.63 447.021 423.855C447.957 421.455 446.977 418.786 446.184 416.333Z" fill="#263238"/>
<path d="M348.312 482.625C347.759 480.62 348.191 478.477 349.47 476.837C353.895 471.162 364.496 457.414 369.008 450.235C374.785 441.044 391.12 415.973 393.995 417.28C396.87 418.586 394.218 461.527 393.43 464.941C392.642 468.355 374.26 488.312 366.645 493.302C359.03 498.291 353.515 495.665 351.414 491.464C350.185 489.004 349.046 485.286 348.312 482.625Z" fill="#FF535A"/>
<path d="M378.437 549.03C378.437 550.251 384.934 679.921 391.464 682.962C401.4 687.589 411.78 684.084 412.225 682.962C413.906 678.732 415.543 555.543 414.698 551.879C413.854 548.216 378.437 549.03 378.437 549.03Z" fill="#FFC149"/>
<path d="M452.729 544.422C452.831 545.639 451.664 674.328 452.416 685.263C452.732 689.857 429.781 688.441 428.964 686.922C426.809 682.913 416.295 554.011 416.831 550.289C417.368 546.568 452.729 544.422 452.729 544.422Z" fill="#FFC149"/>
<path opacity="0.3" d="M417.547 563.639C417.547 563.639 443.157 562.673 452.658 559.349L452.706 551.835L416.995 555.106L417.547 563.639Z" fill="#FF9D1E"/>
<path opacity="0.3" d="M378.924 558.705C378.924 558.705 379.109 558.749 379.453 558.83C383.167 559.696 405.458 564.763 414.928 563.924L414.86 555.164L378.437 553.643" fill="#FF9D1E"/>
<path d="M409.584 412.537C407.816 412.815 396.408 414.539 391.718 418.164C385.558 422.925 381.154 440.13 383.976 446.858C386.797 453.586 388.898 450.913 387.813 455.253C386.728 459.594 374.787 473.34 373.775 496.774C373.332 507.022 371.952 548.143 376.292 552.701C380.633 557.259 452.556 555.371 455.811 550.38C459.067 545.388 451.905 506.541 449.517 493.953C447.13 481.366 449.734 421.683 445.393 417.343C441.053 413.002 424.776 410.15 409.584 412.537Z" fill="#FF535A"/>
<path d="M444.581 416.691C445.666 417.342 453.262 424.938 456.734 434.704C460.206 444.47 466.717 467.909 465.415 474.637C464.113 481.365 450.037 489.382 445.79 484.831C441.542 480.28 440.337 414.281 441.374 415.16C442.411 416.04 444.581 416.691 444.581 416.691Z" fill="#FF535A"/>
<path d="M426.488 467.471C427.807 467.425 450.008 465.822 454.267 468.556C460.765 472.727 454.444 480.737 450.754 481.56C447.065 482.383 425.402 474.426 425.402 474.426C425.402 474.426 425.44 467.508 426.488 467.471Z" fill="#FF9978"/>
<g opacity="0.3">
<path d="M388.614 453.929C382.418 460.569 378.718 468.925 376.589 477.676C374.583 485.922 373.62 494.579 373.293 503.051C372.894 513.393 372.778 523.784 373.029 534.13C373.103 537.195 373.208 540.265 373.493 543.319C373.651 545.014 373.73 546.982 374.491 548.541C374.703 548.975 375.35 548.595 375.139 548.162C374.478 546.809 374.412 545.054 374.269 543.586C374.021 541.054 373.911 538.509 373.83 535.967C373.629 529.654 373.655 523.333 373.737 517.018C373.889 505.366 374.176 493.718 376.372 482.227C378.314 472.062 381.985 462.131 389.144 454.458C389.473 454.107 388.944 453.575 388.614 453.929Z" fill="black"/>
</g>
<g opacity="0.3">
<path d="M387.03 425.815C385.163 430.306 383.412 435.14 382.904 440.003C382.342 445.387 384.887 450.712 388.614 454.459C388.955 454.802 389.485 454.271 389.144 453.929C385.304 450.068 382.95 444.676 383.758 439.184C384.422 434.668 386.007 430.215 387.753 426.015C387.938 425.569 387.213 425.375 387.03 425.815Z" fill="black"/>
</g>
<g opacity="0.3">
<path d="M441.141 416.902C437.793 422.916 437.076 430.51 438.059 437.234C438.128 437.71 438.851 437.507 438.782 437.035C437.829 430.515 438.544 423.107 441.788 417.281C442.024 416.858 441.376 416.479 441.141 416.902Z" fill="black"/>
</g>
<path d="M405.401 463.277C405.194 462.457 405.888 461.374 406.728 461.276C407.568 461.178 408.384 461.538 409.174 461.842C412.223 463.017 415.412 464.596 418.658 464.228C418.826 462.835 417.464 461.31 417.051 460.116C416.917 459.728 416.81 459.285 417.003 458.922C417.244 458.468 417.873 458.348 418.358 458.518C418.843 458.688 419.217 459.071 419.577 459.438C422.251 462.16 426.483 465.509 429.619 467.682L428.498 474.225C422.332 477.397 414.33 476.577 408.935 472.222C408.55 471.911 408.154 471.544 408.072 471.056C407.99 470.568 408.42 469.989 408.896 470.122C406.849 469.812 405.183 467.856 405.202 465.785C404.684 465.578 404.334 465.013 404.378 464.456C404.422 463.902 404.857 463.4 405.401 463.277Z" fill="#FF9978"/>
<path d="M414.35 471.67C412.487 471.087 410.646 470.44 408.828 469.729C408.378 469.553 408.183 470.278 408.629 470.452C410.446 471.163 412.288 471.811 414.151 472.393C414.613 472.538 414.81 471.814 414.35 471.67Z" fill="#FF7800"/>
<path d="M414.102 469.067C411.26 467.903 408.419 466.74 405.577 465.576C405.131 465.393 404.936 466.118 405.378 466.299C408.219 467.463 411.061 468.626 413.903 469.79C414.349 469.973 414.544 469.248 414.102 469.067Z" fill="#FF7800"/>
<path d="M414.443 466.42C411.441 465.2 408.438 463.979 405.436 462.759C404.989 462.577 404.795 463.303 405.237 463.482C408.239 464.702 411.242 465.923 414.244 467.143C414.69 467.324 414.884 466.599 414.443 466.42Z" fill="#FF7800"/>
<path d="M428.019 363.967C424.452 360.696 421.206 358.804 416.638 358.268C412.631 357.798 407.008 358.466 403.448 360.598C398.607 363.497 395.837 369.46 394.176 375.361C392.316 381.969 395.203 389.881 398.442 395.769C399.783 398.207 400.936 399.184 403.376 398.842L404.337 400.115C411.854 402.134 418.909 409.855 432.002 387.69C436.33 380.361 434.019 369.469 428.019 363.967Z" fill="#263238"/>
<path d="M410.878 411.203C412.005 410.142 411.48 407.963 411.229 405.833C411.057 404.196 410.55 402.49 409.942 400.827L412.154 398.482L423.64 387.967C423.007 395.331 420.931 407.203 426.502 411.489L430.033 412.212C428.093 413.652 422.402 420.182 410.57 421.152C404.162 421.677 405.265 415.791 407.018 412.959C409.918 412.208 410.878 411.203 410.878 411.203Z" fill="#FF9978"/>
<path opacity="0.2" d="M411.193 406.784C414.33 406.087 418.863 404.046 419.662 400.48C419.991 399.013 420.043 397.554 419.969 396.582L410.57 402.319C410.665 403.717 411.425 404.786 411.193 406.784Z" fill="black"/>
<path d="M428.331 376.318C426.702 387.509 426.249 392.267 420.131 397.855C410.929 406.259 397.659 402.56 395.941 391.29C394.394 381.146 397.319 364.55 408.612 360.412C419.737 356.335 429.96 365.127 428.331 376.318Z" fill="#FF9978"/>
<path d="M414.169 376.266C414.034 376.317 413.882 376.312 413.749 376.24C411.672 375.11 409.917 376.138 409.897 376.15C409.637 376.303 409.313 376.216 409.176 375.947C409.04 375.677 409.142 375.331 409.404 375.173C409.496 375.119 411.697 373.826 414.275 375.229C414.532 375.369 414.623 375.709 414.478 375.988C414.408 376.122 414.296 376.219 414.169 376.266Z" fill="#263238"/>
<path d="M399.154 375.421C399.026 375.373 398.918 375.279 398.861 375.149C398.744 374.881 398.883 374.563 399.171 374.438C402.066 373.187 404.228 374.466 404.319 374.522C404.576 374.678 404.64 375.007 404.461 375.258C404.284 375.508 403.932 375.585 403.676 375.431C403.592 375.38 401.9 374.412 399.598 375.407C399.449 375.472 399.289 375.472 399.154 375.421Z" fill="#263238"/>
<path d="M405.717 379.361C405.717 379.361 403.733 383.477 401.609 385.995C401.238 386.435 401.417 387.116 401.946 387.344C403.307 387.929 404.957 387.553 404.957 387.553L405.717 379.361Z" fill="#FF7800"/>
<path d="M412.299 380.752C412.272 381.808 411.65 382.694 410.91 382.732C410.17 382.77 409.592 381.945 409.62 380.889C409.647 379.834 410.268 378.947 411.008 378.909C411.748 378.872 412.326 379.697 412.299 380.752Z" fill="#263238"/>
<path d="M411.441 378.988L408.839 378.455C408.839 378.455 410.671 380.342 411.441 378.988Z" fill="#263238"/>
<path d="M402.406 380.221C402.379 381.277 401.758 382.163 401.018 382.2C400.278 382.238 399.7 381.413 399.727 380.357C399.754 379.302 400.375 378.415 401.115 378.377C401.855 378.34 402.432 379.165 402.406 380.221Z" fill="#263238"/>
<path d="M401.554 378.476L398.952 377.943C398.952 377.943 400.784 379.83 401.554 378.476Z" fill="#263238"/>
<path d="M422.905 395.77C433.931 388.71 435.458 360.082 415.818 358.348C396.177 356.614 394.4 383.544 394.4 383.544C401.66 367.151 418.727 366.346 418.727 366.346C414.89 375.025 422.508 380.789 422.508 380.789C425.189 386.765 422.905 395.77 422.905 395.77Z" fill="#263238"/>
<path d="M431.245 385.665C429.794 387.9 427.558 389.234 425.553 389.625C422.537 390.213 421.255 385.345 422.429 382.417C423.487 379.781 426.506 378.16 429.372 378.9C432.196 379.628 432.904 383.109 431.245 385.665Z" fill="#FF9978"/>
<path opacity="0.2" d="M427.174 381.664C428.134 381.314 429.114 381.961 429.414 382.755C429.777 383.715 429.214 385.921 426.281 386.567" stroke="black" stroke-width="0.25" stroke-miterlimit="10" stroke-linecap="round" stroke-linejoin="round"/>
<g opacity="0.3">
<path d="M418.818 366.223C417.996 367.616 417.94 369.38 418.464 370.892C419.032 372.531 420.365 373.727 421.834 374.579C425.41 376.655 429.878 377.339 433.956 377.063C434.435 377.031 434.439 376.28 433.956 376.313C430.271 376.562 426.4 376.001 423.056 374.379C421.648 373.696 420.163 372.717 419.436 371.28C418.714 369.851 418.641 368 419.466 366.602C419.711 366.185 419.063 365.807 418.818 366.223Z" fill="black"/>
</g>
<g opacity="0.3">
<path d="M419.723 366.813C421.449 371.555 426.511 374.237 431.408 372.965C431.875 372.844 431.677 372.12 431.209 372.242C426.729 373.406 422.032 370.97 420.446 366.613C420.282 366.164 419.557 366.358 419.723 366.813Z" fill="black"/>
</g>
<path d="M404.772 390.928C406.674 391.063 408.552 390.121 409.623 388.555C409.896 388.156 409.247 387.78 408.975 388.176C408.047 389.532 406.402 390.293 404.771 390.178C404.291 390.144 404.293 390.894 404.772 390.928Z" fill="#263238"/>
<g opacity="0.3">
<path d="M439.583 444.38C440.271 450.443 441.105 456.488 442.084 462.512C442.161 462.987 442.884 462.785 442.807 462.313C441.839 456.356 441.014 450.377 440.333 444.381C440.279 443.906 439.529 443.9 439.583 444.38Z" fill="black"/>
</g>
<g opacity="0.3">
<path d="M438.686 466.388C443.457 462.12 450.46 461.507 455.918 464.839C456.331 465.091 456.708 464.443 456.297 464.191C450.544 460.678 443.174 461.368 438.156 465.857C437.795 466.18 438.327 466.709 438.686 466.388Z" fill="black"/>
</g>
<g opacity="0.3">
<path d="M409.452 448.025C412.639 453.215 419.006 456.005 424.982 454.859C425.456 454.768 425.255 454.045 424.783 454.136C419.144 455.218 413.101 452.535 410.1 447.646C409.848 447.236 409.198 447.612 409.452 448.025Z" fill="black"/>
</g>
<g opacity="0.3">
<path d="M436.243 479.104C437.8 481.687 439.915 483.926 442.724 485.129C445.523 486.328 448.603 486.364 451.57 485.907C452.046 485.834 451.844 485.111 451.371 485.184C448.553 485.618 445.583 485.572 442.934 484.408C440.312 483.256 438.349 481.144 436.89 478.725C436.642 478.312 435.993 478.689 436.243 479.104Z" fill="black"/>
</g>
<path d="M360.083 412.234C355.77 411.433 351.413 410.896 347.035 410.627C346.109 410.563 345.166 410.526 344.208 410.518C336.455 410.622 328.714 411.171 321.024 412.161C319.562 412.342 318.088 412.548 316.651 412.777C309.342 413.925 306.421 415.308 306.421 415.308L308.209 471.266C309.055 487.334 307.773 505.41 308.256 509.553C327.301 512.863 350.706 512.892 375.075 509.149C369.873 447.852 360.083 412.234 360.083 412.234Z" fill="#407BFF"/>
<path opacity="0.3" d="M360.083 412.234C355.77 411.433 351.413 410.896 347.035 410.627C346.109 410.563 345.166 410.526 344.208 410.518C336.455 410.622 328.714 411.171 321.024 412.161C319.562 412.342 318.088 412.548 316.651 412.777C309.342 413.925 306.421 415.308 306.421 415.308L308.209 471.266C309.055 487.334 307.773 505.41 308.256 509.553C327.301 512.863 350.706 512.892 375.075 509.149C369.873 447.852 360.083 412.234 360.083 412.234Z" fill="black"/>
<g opacity="0.3">
<path d="M361.319 424.305C367.072 445.408 370.062 467.161 372.276 488.889C372.928 495.283 373.514 501.686 373.932 508.099C373.963 508.578 374.713 508.582 374.682 508.099C373.321 487.204 370.867 466.208 367.007 445.622C365.649 438.383 363.98 431.211 362.043 424.105C361.915 423.641 361.191 423.838 361.319 424.305Z" fill="black"/>
</g>
<path d="M341.918 410.519C341.918 410.519 339.579 407.405 338.733 404.671C338.204 403.145 338.076 401.508 338.363 399.918C338.491 399.033 338.68 398.158 338.929 397.3L321.103 386.273C323.227 393.171 327.491 406.381 322.761 411.946C322.761 411.946 332.066 414.874 337.099 414.591C342.132 414.308 341.918 410.519 341.918 410.519Z" fill="#FDBBB5"/>
<path opacity="0.2" d="M325.064 393C325.459 401.387 334.357 404.043 338.742 404.684C338.213 403.158 338.085 401.521 338.372 399.931L325.064 393Z" fill="black"/>
<path d="M336.65 359.908C342.904 358.612 341.871 362.174 345.082 364.446C348.674 366.988 348.58 372.53 344.747 374.693C343.389 375.459 342.053 375.477 341.207 374.28C338.603 370.598 329.855 361.246 336.65 359.908Z" fill="#263238"/>
<path d="M317.428 380.553C320.931 389.972 322.711 395.355 329.187 398.755C338.929 403.869 349.574 396.045 349.041 385.735C348.56 376.455 342.913 362.611 332.09 361.754C321.427 360.91 313.926 371.135 317.428 380.553Z" fill="#FDBBB5"/>
<path d="M332.029 379.456C332.352 380.526 333.196 381.214 333.916 380.994C334.635 380.774 334.957 379.727 334.634 378.657C334.311 377.587 333.467 376.899 332.747 377.12C332.028 377.34 331.706 378.386 332.029 379.456Z" fill="#263238"/>
<path d="M341.507 376.803C341.829 377.873 342.674 378.561 343.393 378.341C344.112 378.121 344.434 377.074 344.111 376.004C343.789 374.934 342.944 374.246 342.225 374.466C341.506 374.688 341.184 375.734 341.507 376.803Z" fill="#263238"/>
<path d="M339.005 376.797C339.005 376.797 343.68 380.729 345.306 382.412C344.27 384.064 341.672 384.213 341.672 384.213L339.005 376.797Z" fill="#D7504D"/>
<path d="M328.738 375.449C328.91 375.443 329.076 375.35 329.165 375.189C330.23 373.283 332.037 373.088 332.055 373.086C332.326 373.06 332.53 372.824 332.511 372.559C332.491 372.295 332.255 372.102 331.985 372.127C331.889 372.136 329.625 372.379 328.304 374.745C328.172 374.981 328.258 375.272 328.495 375.394C328.573 375.435 328.656 375.452 328.738 375.449Z" fill="#263238"/>
<path d="M345.508 371.021C345.592 370.979 345.665 370.914 345.715 370.828C345.851 370.596 345.772 370.301 345.538 370.171C343.185 368.859 341.161 369.877 341.065 369.911C340.823 370.034 340.725 370.326 340.847 370.562C340.969 370.797 341.262 370.889 341.504 370.769C341.586 370.723 343.156 369.958 345.044 371.011C345.191 371.094 345.365 371.092 345.508 371.021Z" fill="#263238"/>
<path d="M336.569 352.943C335.232 353.344 333.815 353.891 332.067 354.587C332.067 354.587 332.071 354.578 332.079 354.561C333.058 352.458 330.613 350.429 328.692 351.73C318.942 358.335 314.03 355.013 308.622 360.505C304.704 364.483 308.546 369.508 308.546 369.508C308.546 369.508 298.359 376.123 313.716 387.573L324.043 393.24L321.502 386.311C322.092 386.248 322.72 386.247 323.408 386.358C323.869 384.02 324 381.63 323.799 379.255C323.459 377.398 322.874 375.595 322.059 373.893C322.059 373.893 327.729 370.543 327.86 366.506C327.86 366.506 337.993 369.489 343.403 364.932C344.755 363.793 345.446 362.561 345.764 361.323C347.132 355.998 341.836 351.361 336.569 352.943Z" fill="#263238"/>
<path d="M315.937 389.712C317.473 391.949 319.936 393.263 322.183 393.628C325.563 394.177 325.718 390.719 324.526 387.778C323.453 385.131 321.635 382.057 318.364 382.848C315.142 383.626 314.181 387.154 315.937 389.712Z" fill="#FDBBB5"/>
<path opacity="0.2" d="M317.395 386.389C317.621 385.698 318.37 385.247 319.111 385.207C319.852 385.167 320.571 385.477 321.161 385.909C321.869 386.427 322.432 387.131 322.777 387.927" stroke="black" stroke-width="0.75" stroke-miterlimit="10" stroke-linecap="round" stroke-linejoin="round"/>
<path d="M340.982 387.843C339.65 388.33 338.039 387.839 337.252 386.643C336.988 386.242 336.338 386.617 336.604 387.022C337.565 388.482 339.526 389.172 341.181 388.567C341.371 388.498 341.5 388.312 341.443 388.106C341.393 387.921 341.174 387.773 340.982 387.843Z" fill="#263238"/>
<path d="M380.168 470.31C378.893 469.967 357.633 463.378 352.864 465.077C345.591 467.668 349.934 476.902 353.341 478.538C356.748 480.175 379.65 477.33 379.65 477.33C379.65 477.33 381.18 470.583 380.168 470.31Z" fill="#FDBBB5"/>
<path d="M401.656 470.999C402.043 470.247 401.613 469.035 400.817 468.75C400.021 468.464 399.144 468.63 398.306 468.748C395.071 469.202 391.606 470.018 388.528 468.924C388.68 467.529 390.351 466.352 391.025 465.283C391.244 464.936 391.448 464.528 391.342 464.131C391.21 463.634 390.624 463.375 390.113 463.431C389.602 463.487 389.151 463.775 388.718 464.051C385.497 466.097 380.617 468.401 377.07 469.807L376.68 476.434C381.967 480.919 389.948 481.934 396.189 478.913C396.634 478.698 397.103 478.43 397.293 477.973C397.484 477.516 397.196 476.855 396.702 476.877C398.767 477.038 400.832 475.511 401.282 473.489C401.833 473.404 402.303 472.933 402.386 472.382C402.469 471.83 402.158 471.242 401.656 470.999Z" fill="#FDBBB5"/>
<path d="M391.054 477.898C393.034 477.75 395.007 477.53 396.972 477.244C397.174 477.215 397.281 476.961 397.234 476.783C397.177 476.567 396.972 476.492 396.773 476.521C394.875 476.797 392.967 477.005 391.054 477.148C390.576 477.184 390.572 477.934 391.054 477.898Z" fill="#D7504D"/>
<path d="M391.985 475.405C395.016 474.915 398.048 474.425 401.079 473.935C401.554 473.858 401.353 473.135 400.88 473.212C397.849 473.702 394.817 474.192 391.786 474.682C391.31 474.759 391.512 475.482 391.985 475.405Z" fill="#D7504D"/>
<path d="M392.253 472.749C395.454 472.24 398.654 471.732 401.855 471.223C402.33 471.147 402.129 470.425 401.656 470.5C398.455 471.009 395.255 471.518 392.054 472.026C391.578 472.102 391.78 472.825 392.253 472.749Z" fill="#D7504D"/>
<path d="M306.42 415.309C306.42 415.309 300.438 414.896 299.123 428.91C297.808 442.924 312.973 475.121 322.777 479.092C332.581 483.063 371.124 482.549 373.758 479.736C375.074 478.331 374.706 465.446 371.689 464.203C368.672 462.96 332.405 459.3 332.405 459.3C332.405 459.3 318.839 433.707 315.747 426.851C312.618 419.909 306.42 415.309 306.42 415.309Z" fill="#407BFF"/>
<path opacity="0.3" d="M306.42 415.309C306.42 415.309 300.438 414.896 299.123 428.91C297.808 442.924 312.973 475.121 322.777 479.092C332.581 483.063 371.124 482.549 373.758 479.736C375.074 478.331 374.706 465.446 371.689 464.203C368.672 462.96 332.405 459.3 332.405 459.3C332.405 459.3 318.839 433.707 315.747 426.851C312.618 419.909 306.42 415.309 306.42 415.309Z" fill="black"/>
<g opacity="0.3">
<path d="M371.789 463.842C367.025 462.929 362.116 462.535 357.306 461.94C350.55 461.105 343.792 460.288 337.033 459.478C335.491 459.293 333.948 459.109 332.405 458.925C332.438 459.17 332.471 459.416 332.505 459.662C333.337 459.51 331.884 457.149 331.745 456.869C330.575 454.503 329.35 452.165 328.126 449.827C325.205 444.245 322.24 438.686 319.265 433.132C318.548 431.793 317.831 430.455 317.111 429.118C316.882 428.693 316.234 429.071 316.463 429.496C321.055 438.028 325.658 446.561 330.062 455.192C330.552 456.151 331.04 457.111 331.505 458.083C331.637 458.358 331.738 458.696 331.907 458.949C331.946 459.007 331.955 459.16 332.009 459.2C332.011 459.202 332.027 459.27 332.034 459.272C332.234 459.343 331.33 459.116 332.305 458.938C331.853 459.021 332.022 459.629 332.405 459.675C343.437 460.987 354.469 462.3 365.488 463.718C367.518 463.979 369.577 464.18 371.589 464.565C372.061 464.655 372.263 463.932 371.789 463.842Z" fill="black"/>
</g>
<g opacity="0.3">
<path d="M307.523 460.15C309.684 464.427 312.155 468.591 315.081 472.391C316.908 474.765 318.96 477.122 321.502 478.755C323.258 479.883 325.075 480.233 327.109 480.414C332.342 480.88 337.623 480.922 342.872 480.999C349.04 481.089 355.209 481.102 361.377 481.083C364.841 481.072 368.305 481.054 371.768 481.014C372.25 481.008 372.252 480.258 371.768 480.264C363.193 480.363 354.615 480.376 346.04 480.287C340.475 480.23 334.899 480.166 329.343 479.827C327.632 479.722 325.766 479.716 324.117 479.198C321.294 478.311 319.013 475.926 317.138 473.744C313.536 469.553 310.657 464.693 308.17 459.771C307.953 459.341 307.306 459.72 307.523 460.15Z" fill="black"/>
</g>
<path d="M-70 589L-23.3537 566L28.5793 589L85.7988 566L134 589" stroke="#FFC149" stroke-width="15" stroke-linecap="round"/>
</g>
<defs>
<clipPath id="clip0_2_549">
<rect width="1280" height="832" fill="white" transform="matrix(-1 0 0 1 1280 0)"/>
</clipPath>
</defs>
</svg>
